<svg xmlns="http://www.w3.org/2000/svg" xmlns:xlink="http://www.w3.org/1999/xlink" width="600" zoomAndPan="magnify" viewBox="0 0 450 449.999984" height="600" preserveAspectRatio="xMidYMid meet" version="1.0"><path fill="#1a4789" d="M 450 381.570312 C 450 419.335938 419.390625 449.945312 381.625 449.945312 L 68.394531 449.945312 C 30.632812 449.945312 0.015625 419.335938 0.015625 381.570312 L 0.015625 68.34375 C 0.015625 30.578125 30.632812 -0.0351562 68.394531 -0.0351562 L 381.625 -0.0351562 C 419.386719 -0.0351562 450 30.578125 450 68.34375 Z M 450 381.570312 " fill-opacity="1" fill-rule="nonzero"/><path fill="#ffffff" d="M 298.175781 259.917969 L 305.453125 203.496094 L 249.582031 203.496094 L 249.582031 167.476562 C 249.582031 151.136719 254.140625 140.007812 277.558594 140.007812 L 307.414062 139.988281 L 307.414062 89.53125 C 302.257812 88.839844 284.539062 87.304688 263.886719 87.304688 C 220.804688 87.304688 191.332031 113.605469 191.332031 161.894531 L 191.332031 203.5 L 142.609375 203.5 L 142.609375 259.917969 L 191.332031 259.917969 L 191.332031 404.6875 L 249.582031 404.6875 L 249.582031 259.917969 Z M 298.175781 259.917969 " fill-opacity="1" fill-rule="nonzero"/></svg>