<svg xmlns="http://www.w3.org/2000/svg" xmlns:xlink="http://www.w3.org/1999/xlink" width="600" zoomAndPan="magnify" viewBox="0 0 450 449.999984" height="600" preserveAspectRatio="xMidYMid meet" version="1.0"><defs><clipPath id="d9b48ad585"><path d="M 135 161.664062 L 315 161.664062 L 315 288.414062 L 135 288.414062 Z M 135 161.664062 " clip-rule="nonzero"/></clipPath></defs><g clip-path="url(#d9b48ad585)"><path fill="#ff0000" d="M 311.070312 181.546875 C 310.554688 179.636719 309.796875 177.824219 308.808594 176.109375 C 307.816406 174.398438 306.621094 172.84375 305.222656 171.445312 C 303.824219 170.042969 302.269531 168.847656 300.558594 167.855469 C 298.847656 166.863281 297.035156 166.109375 295.125 165.589844 C 281.148438 161.773438 224.886719 161.773438 224.886719 161.773438 C 224.886719 161.773438 168.625 161.882812 154.640625 165.703125 C 152.734375 166.222656 150.921875 166.976562 149.210938 167.96875 C 147.5 168.960938 145.945312 170.15625 144.546875 171.554688 C 143.148438 172.957031 141.953125 174.511719 140.960938 176.222656 C 139.972656 177.9375 139.214844 179.746094 138.699219 181.65625 C 135 195.648438 135 224.898438 135 224.898438 C 135 224.898438 135 254.144531 138.8125 268.25 C 139.332031 270.160156 140.085938 271.96875 141.078125 273.683594 C 142.070312 275.394531 143.265625 276.949219 144.664062 278.351562 C 146.0625 279.75 147.617188 280.945312 149.328125 281.9375 C 151.039062 282.929688 152.847656 283.683594 154.757812 284.203125 C 168.734375 288.023438 225 288.023438 225 288.023438 C 225 288.023438 281.265625 288.023438 295.246094 284.207031 C 297.152344 283.6875 298.964844 282.933594 300.675781 281.941406 C 302.386719 280.949219 303.941406 279.753906 305.339844 278.351562 C 306.738281 276.953125 307.933594 275.398438 308.925781 273.683594 C 309.917969 271.972656 310.671875 270.160156 311.1875 268.25 C 315 254.261719 315 224.898438 315 224.898438 C 315 224.898438 314.886719 195.648438 311.070312 181.546875 Z M 311.070312 181.546875 " fill-opacity="1" fill-rule="nonzero"/></g><path fill="#ffffff" d="M 206.976562 251.949219 L 253.652344 224.898438 L 206.976562 197.84375 Z M 206.976562 251.949219 " fill-opacity="1" fill-rule="nonzero"/><path fill="#e52d27" d="M 450 381.613281 C 450 419.328125 419.328125 450 381.613281 450 L 68.386719 450 C 30.671875 450 0 419.328125 0 381.613281 L 0 68.386719 C 0 30.671875 30.671875 0 68.386719 0 L 381.613281 0 C 419.328125 0 450 30.671875 450 68.386719 Z M 450 381.613281 " fill-opacity="1" fill-rule="nonzero"/><path fill="#ffffff" d="M 384.507812 228.558594 C 384.507812 253.441406 384.507812 279.8125 378.953125 303.914062 C 375.039062 320.890625 361.1875 333.332031 344.445312 335.210938 C 304.929688 339.59375 264.867188 339.671875 225.039062 339.59375 C 185.132812 339.59375 145.226562 339.59375 105.632812 335.210938 C 88.96875 333.332031 75.039062 320.890625 71.125 303.914062 C 65.570312 279.8125 65.570312 253.441406 65.570312 228.558594 C 65.570312 203.675781 65.648438 177.308594 71.125 153.207031 C 75.039062 136.226562 88.890625 123.789062 105.632812 121.910156 C 145.226562 117.449219 185.210938 117.449219 225.039062 117.449219 C 264.867188 117.449219 304.851562 117.449219 344.445312 121.910156 C 361.109375 123.789062 375.039062 136.226562 378.953125 153.207031 C 384.507812 177.308594 384.507812 203.675781 384.507812 228.558594 Z M 384.507812 228.558594 " fill-opacity="1" fill-rule="nonzero"/><path fill="#e52d27" d="M 191.472656 169.25 L 191.472656 288.417969 L 284.039062 228.796875 Z M 191.472656 169.25 " fill-opacity="1" fill-rule="nonzero"/></svg>