<svg xmlns="http://www.w3.org/2000/svg" xmlns:xlink="http://www.w3.org/1999/xlink" width="500" zoomAndPan="magnify" viewBox="0 0 375 525.000007" height="700" preserveAspectRatio="xMidYMid meet" version="1.0"><defs><g/></defs><g fill="#ffffff" fill-opacity="1"><g transform="translate(16.959601, 241.589452)"><g><path d="M 15.71875 0 L 7.546875 0 L 7.546875 -58.140625 L 6.234375 -63.9375 L 25.375 -63.9375 C 32.050781 -63.9375 37.304688 -62.367188 41.140625 -59.234375 C 44.984375 -56.109375 46.90625 -51.234375 46.90625 -44.609375 C 46.90625 -38.460938 44.882812 -33.707031 40.84375 -30.34375 C 36.800781 -26.976562 31.675781 -25.296875 25.46875 -25.296875 L 15.71875 -25.296875 Z M 15.71875 -31.265625 L 25.296875 -31.265625 C 29.335938 -31.265625 32.523438 -32.476562 34.859375 -34.90625 C 37.203125 -37.34375 38.375 -40.578125 38.375 -44.609375 C 38.375 -48.773438 37.25 -52.023438 35 -54.359375 C 32.75 -56.703125 29.539062 -57.875 25.375 -57.875 L 15.71875 -57.875 Z M 15.71875 -31.265625 "/></g></g></g><g fill="#ffffff" fill-opacity="1"><g transform="translate(67.454408, 241.589452)"><g><path d="M 14.40625 0 L 7.109375 0 L 7.109375 -31.625 C 7.109375 -36.769531 6.171875 -40.71875 4.296875 -43.46875 L 12.203125 -44.4375 C 13.253906 -41.863281 13.929688 -39.140625 14.234375 -36.265625 C 15.804688 -38.734375 17.878906 -40.710938 20.453125 -42.203125 C 23.035156 -43.691406 25.734375 -44.4375 28.546875 -44.4375 L 26.78125 -36.71875 C 22.039062 -36.71875 17.914062 -34.140625 14.40625 -28.984375 Z M 14.40625 0 "/></g></g></g><g fill="#ffffff" fill-opacity="1"><g transform="translate(98.102553, 241.589452)"><g><path d="M 23.53125 1.140625 C 17.382812 1.140625 12.566406 -1.097656 9.078125 -5.578125 C 5.597656 -10.054688 3.859375 -15.457031 3.859375 -21.78125 C 3.859375 -28.039062 5.613281 -33.425781 9.125 -37.9375 C 12.644531 -42.445312 17.445312 -44.703125 23.53125 -44.703125 C 29.738281 -44.703125 34.582031 -42.476562 38.0625 -38.03125 C 41.550781 -33.582031 43.296875 -28.164062 43.296875 -21.78125 C 43.296875 -15.394531 41.550781 -9.976562 38.0625 -5.53125 C 34.582031 -1.082031 29.738281 1.140625 23.53125 1.140625 Z M 23.53125 -4.390625 C 26.40625 -4.390625 28.789062 -5.351562 30.6875 -7.28125 C 32.59375 -9.21875 33.882812 -11.429688 34.5625 -13.921875 C 35.238281 -16.410156 35.578125 -19.03125 35.578125 -21.78125 C 35.578125 -24.53125 35.222656 -27.148438 34.515625 -29.640625 C 33.816406 -32.128906 32.515625 -34.335938 30.609375 -36.265625 C 28.703125 -38.203125 26.34375 -39.171875 23.53125 -39.171875 C 20.726562 -39.171875 18.375 -38.203125 16.46875 -36.265625 C 14.5625 -34.335938 13.269531 -32.128906 12.59375 -29.640625 C 11.925781 -27.148438 11.59375 -24.53125 11.59375 -21.78125 C 11.59375 -19.207031 11.972656 -16.660156 12.734375 -14.140625 C 13.492188 -11.617188 14.820312 -9.363281 16.71875 -7.375 C 18.625 -5.382812 20.894531 -4.390625 23.53125 -4.390625 Z M 23.53125 -4.390625 "/></g></g></g><g fill="#ffffff" fill-opacity="1"><g transform="translate(145.172498, 241.589452)"><g><path d="M 44.359375 -0.171875 L 36.625 0.796875 C 35.800781 -1.023438 35.242188 -3.019531 34.953125 -5.1875 C 31.671875 -0.96875 27.367188 1.140625 22.046875 1.140625 C 16.304688 1.140625 11.851562 -1.113281 8.6875 -5.625 C 5.53125 -10.132812 3.953125 -15.40625 3.953125 -21.4375 C 3.953125 -27.875 5.632812 -33.34375 9 -37.84375 C 12.363281 -42.351562 17.179688 -44.609375 23.453125 -44.609375 C 27.960938 -44.609375 31.617188 -43.320312 34.421875 -40.75 L 34.421875 -61.75 L 33.203125 -66.921875 L 41.625 -66.921875 L 41.625 -12.5625 C 41.625 -7.351562 42.535156 -3.222656 44.359375 -0.171875 Z M 34.421875 -11.0625 L 34.421875 -25.828125 C 34.421875 -29.566406 33.53125 -32.632812 31.75 -35.03125 C 29.96875 -37.4375 27.257812 -38.640625 23.625 -38.640625 C 21.394531 -38.640625 19.472656 -38.140625 17.859375 -37.140625 C 16.253906 -36.148438 15.023438 -34.820312 14.171875 -33.15625 C 13.328125 -31.488281 12.703125 -29.734375 12.296875 -27.890625 C 11.890625 -26.046875 11.6875 -24.066406 11.6875 -21.953125 C 11.6875 -17.390625 12.707031 -13.46875 14.75 -10.1875 C 16.800781 -6.90625 19.960938 -5.265625 24.234375 -5.265625 C 27.628906 -5.265625 31.023438 -7.195312 34.421875 -11.0625 Z M 34.421875 -11.0625 "/></g></g></g><g fill="#ffffff" fill-opacity="1"><g transform="translate(194.174416, 241.589452)"><g><path d="M 46.90625 -6.40625 L 48.390625 -1.84375 C 47.984375 -1.664062 47.328125 -1.382812 46.421875 -1 C 45.515625 -0.625 44.78125 -0.332031 44.21875 -0.125 C 43.664062 0.0703125 42.976562 0.273438 42.15625 0.484375 C 41.332031 0.691406 40.601562 0.796875 39.96875 0.796875 C 38.269531 0.796875 36.890625 0.238281 35.828125 -0.875 C 34.773438 -1.988281 34.101562 -3.425781 33.8125 -5.1875 C 29.71875 -0.96875 25.238281 1.140625 20.375 1.140625 C 15.75 1.140625 12.367188 -0.25 10.234375 -3.03125 C 8.097656 -5.8125 7.03125 -9.601562 7.03125 -14.40625 L 7.03125 -38.46875 C 7.03125 -38.53125 6.941406 -38.953125 6.765625 -39.734375 C 6.585938 -40.523438 6.394531 -41.34375 6.1875 -42.1875 C 5.988281 -43.039062 5.890625 -43.53125 5.890625 -43.65625 L 14.3125 -43.65625 L 14.3125 -16.78125 C 14.3125 -15.195312 14.382812 -13.847656 14.53125 -12.734375 C 14.675781 -11.617188 14.96875 -10.445312 15.40625 -9.21875 C 15.851562 -7.988281 16.601562 -7.035156 17.65625 -6.359375 C 18.707031 -5.691406 20.023438 -5.359375 21.609375 -5.359375 C 24.890625 -5.359375 27.695312 -6.394531 30.03125 -8.46875 C 32.375 -10.550781 33.546875 -13.234375 33.546875 -16.515625 L 33.546875 -38.46875 C 33.546875 -38.53125 33.457031 -38.953125 33.28125 -39.734375 C 33.101562 -40.523438 32.910156 -41.34375 32.703125 -42.1875 C 32.503906 -43.039062 32.40625 -43.53125 32.40625 -43.65625 L 40.84375 -43.65625 L 40.84375 -8.515625 C 40.84375 -7.347656 40.972656 -6.5 41.234375 -5.96875 C 41.492188 -5.445312 42.003906 -5.1875 42.765625 -5.1875 C 43.472656 -5.1875 44.851562 -5.59375 46.90625 -6.40625 Z M 46.90625 -6.40625 "/></g></g></g><g fill="#ffffff" fill-opacity="1"><g transform="translate(242.737261, 241.589452)"><g><path d="M 34.6875 -8.78125 L 38.03125 -3.25 C 35.28125 -1.613281 32.921875 -0.472656 30.953125 0.171875 C 28.992188 0.816406 26.550781 1.140625 23.625 1.140625 C 17.769531 1.140625 13.007812 -1.1875 9.34375 -5.84375 C 5.6875 -10.5 3.859375 -15.8125 3.859375 -21.78125 C 3.859375 -28.394531 5.71875 -33.867188 9.4375 -38.203125 C 13.15625 -42.535156 18.265625 -44.703125 24.765625 -44.703125 C 29.273438 -44.703125 33.492188 -43.207031 37.421875 -40.21875 L 33.46875 -35.125 C 31.769531 -36.59375 30.226562 -37.601562 28.84375 -38.15625 C 27.46875 -38.71875 25.726562 -39 23.625 -39 C 19.820312 -39 16.878906 -37.269531 14.796875 -33.8125 C 12.722656 -30.351562 11.6875 -26.609375 11.6875 -22.578125 C 11.6875 -19.878906 12.078125 -17.253906 12.859375 -14.703125 C 13.648438 -12.160156 15.023438 -9.894531 16.984375 -7.90625 C 18.953125 -5.914062 21.3125 -4.921875 24.0625 -4.921875 C 26.175781 -4.921875 27.960938 -5.210938 29.421875 -5.796875 C 30.890625 -6.378906 32.644531 -7.375 34.6875 -8.78125 Z M 34.6875 -8.78125 "/></g></g></g><g fill="#ffffff" fill-opacity="1"><g transform="translate(282.254929, 241.589452)"><g><path d="M 25.734375 -5.53125 L 26.96875 -0.609375 C 23.507812 0.441406 20.609375 0.96875 18.265625 0.96875 C 14.691406 0.96875 12.128906 0.015625 10.578125 -1.890625 C 9.023438 -3.796875 8.25 -6.617188 8.25 -10.359375 L 8.25 -38.125 L 1.75 -38.125 L 1.75 -42.515625 C 6.84375 -42.628906 10.238281 -47.164062 11.9375 -56.125 L 17.484375 -56.125 C 16.191406 -50.851562 15.546875 -46.695312 15.546875 -43.65625 L 26.96875 -43.65625 L 25.375 -38.125 L 15.546875 -38.125 L 15.546875 -10.1875 C 15.546875 -8.3125 15.878906 -6.921875 16.546875 -6.015625 C 17.222656 -5.109375 18.441406 -4.65625 20.203125 -4.65625 C 21.546875 -4.65625 23.390625 -4.945312 25.734375 -5.53125 Z M 25.734375 -5.53125 "/></g></g></g><g fill="#ffffff" fill-opacity="1"><g transform="translate(310.971089, 241.589452)"><g><path d="M 23.53125 1.140625 C 17.382812 1.140625 12.566406 -1.097656 9.078125 -5.578125 C 5.597656 -10.054688 3.859375 -15.457031 3.859375 -21.78125 C 3.859375 -28.039062 5.613281 -33.425781 9.125 -37.9375 C 12.644531 -42.445312 17.445312 -44.703125 23.53125 -44.703125 C 29.738281 -44.703125 34.582031 -42.476562 38.0625 -38.03125 C 41.550781 -33.582031 43.296875 -28.164062 43.296875 -21.78125 C 43.296875 -15.394531 41.550781 -9.976562 38.0625 -5.53125 C 34.582031 -1.082031 29.738281 1.140625 23.53125 1.140625 Z M 23.53125 -4.390625 C 26.40625 -4.390625 28.789062 -5.351562 30.6875 -7.28125 C 32.59375 -9.21875 33.882812 -11.429688 34.5625 -13.921875 C 35.238281 -16.410156 35.578125 -19.03125 35.578125 -21.78125 C 35.578125 -24.53125 35.222656 -27.148438 34.515625 -29.640625 C 33.816406 -32.128906 32.515625 -34.335938 30.609375 -36.265625 C 28.703125 -38.203125 26.34375 -39.171875 23.53125 -39.171875 C 20.726562 -39.171875 18.375 -38.203125 16.46875 -36.265625 C 14.5625 -34.335938 13.269531 -32.128906 12.59375 -29.640625 C 11.925781 -27.148438 11.59375 -24.53125 11.59375 -21.78125 C 11.59375 -19.207031 11.972656 -16.660156 12.734375 -14.140625 C 13.492188 -11.617188 14.820312 -9.363281 16.71875 -7.375 C 18.625 -5.382812 20.894531 -4.390625 23.53125 -4.390625 Z M 23.53125 -4.390625 "/></g></g></g><g fill="#e3c902" fill-opacity="1"><g transform="translate(161.305747, 345.737166)"><g><path d="M 27.234375 0.203125 L 22.71875 0.203125 L 8.921875 -20.828125 C 7.972656 -22.304688 7.390625 -23.242188 7.171875 -23.640625 C 7.335938 -21.796875 7.421875 -20.859375 7.421875 -20.828125 L 7.421875 0 L 2.765625 0 L 2.765625 -28.078125 C 2.765625 -28.109375 2.710938 -28.316406 2.609375 -28.703125 C 2.515625 -29.097656 2.414062 -29.503906 2.3125 -29.921875 C 2.21875 -30.335938 2.171875 -30.578125 2.171875 -30.640625 L 9.046875 -30.640625 L 21.125 -12.28125 C 21.539062 -11.664062 22.113281 -10.742188 22.84375 -9.515625 C 22.675781 -11.609375 22.59375 -12.679688 22.59375 -12.734375 L 22.59375 -30.640625 L 27.234375 -30.640625 Z M 27.234375 0.203125 "/></g></g></g><g fill="#e3c902" fill-opacity="1"><g transform="translate(191.228323, 345.737166)"><g><path d="M 1.09375 -10.4375 C 1.09375 -13.507812 2.019531 -16.097656 3.875 -18.203125 C 5.726562 -20.316406 8.179688 -21.375 11.234375 -21.375 C 14.304688 -21.375 16.765625 -20.328125 18.609375 -18.234375 C 20.453125 -16.140625 21.375 -13.539062 21.375 -10.4375 C 21.375 -7.332031 20.453125 -4.734375 18.609375 -2.640625 C 16.765625 -0.546875 14.304688 0.5 11.234375 0.5 C 8.160156 0.5 5.703125 -0.546875 3.859375 -2.640625 C 2.015625 -4.734375 1.09375 -7.332031 1.09375 -10.4375 Z M 11.234375 -17.9375 C 10.054688 -17.9375 9.097656 -17.488281 8.359375 -16.59375 C 7.617188 -15.695312 7.144531 -14.734375 6.9375 -13.703125 C 6.726562 -12.671875 6.625 -11.566406 6.625 -10.390625 C 6.625 -9.210938 6.726562 -8.109375 6.9375 -7.078125 C 7.144531 -6.046875 7.617188 -5.082031 8.359375 -4.1875 C 9.097656 -3.289062 10.054688 -2.84375 11.234375 -2.84375 C 12.148438 -2.84375 12.9375 -3.082031 13.59375 -3.5625 C 14.25 -4.039062 14.722656 -4.679688 15.015625 -5.484375 C 15.316406 -6.296875 15.53125 -7.09375 15.65625 -7.875 C 15.78125 -8.65625 15.84375 -9.492188 15.84375 -10.390625 C 15.84375 -11.285156 15.78125 -12.125 15.65625 -12.90625 C 15.53125 -13.6875 15.316406 -14.484375 15.015625 -15.296875 C 14.722656 -16.109375 14.25 -16.75 13.59375 -17.21875 C 12.9375 -17.695312 12.148438 -17.9375 11.234375 -17.9375 Z M 11.234375 -17.9375 "/></g></g></g><g fill="#e3c902" fill-opacity="1"><g transform="translate(94.635864, 404.125948)"><g><path d="M 21.578125 -0.125 L 16.515625 0.375 C 16.285156 -0.238281 16.070312 -1.078125 15.875 -2.140625 C 15.320312 -1.328125 14.492188 -0.679688 13.390625 -0.203125 C 12.285156 0.265625 11.1875 0.5 10.09375 0.5 C 7.269531 0.5 5.078125 -0.566406 3.515625 -2.703125 C 1.953125 -4.835938 1.171875 -7.359375 1.171875 -10.265625 C 1.171875 -13.453125 2.015625 -16.09375 3.703125 -18.1875 C 5.398438 -20.28125 7.796875 -21.328125 10.890625 -21.328125 C 12.898438 -21.328125 14.453125 -20.878906 15.546875 -19.984375 C 15.515625 -20.742188 15.5 -21.597656 15.5 -22.546875 L 15.5 -29.921875 L 14.875 -32.1875 L 20.53125 -32.1875 L 20.53125 -5.953125 C 20.53125 -3.347656 20.878906 -1.40625 21.578125 -0.125 Z M 15.5 -5.40625 L 15.5 -12.234375 C 15.5 -13.828125 15.175781 -15.144531 14.53125 -16.1875 C 13.894531 -17.238281 12.835938 -17.765625 11.359375 -17.765625 C 10.210938 -17.765625 9.269531 -17.335938 8.53125 -16.484375 C 7.789062 -15.640625 7.289062 -14.707031 7.03125 -13.6875 C 6.78125 -12.664062 6.65625 -11.597656 6.65625 -10.484375 C 6.65625 -8.628906 7.046875 -6.957031 7.828125 -5.46875 C 8.617188 -3.976562 9.851562 -3.234375 11.53125 -3.234375 C 12.28125 -3.234375 13.023438 -3.429688 13.765625 -3.828125 C 14.503906 -4.234375 15.082031 -4.757812 15.5 -5.40625 Z M 15.5 -5.40625 "/></g></g></g><g fill="#e3c902" fill-opacity="1"><g transform="translate(118.02073, 404.125948)"><g><path d="M 7.75 0 L 2.71875 0 L 2.71875 -18.5625 C 2.71875 -18.59375 2.679688 -18.773438 2.609375 -19.109375 C 2.546875 -19.441406 2.472656 -19.800781 2.390625 -20.1875 C 2.304688 -20.582031 2.265625 -20.796875 2.265625 -20.828125 L 7.75 -20.828125 Z M 7.5 -30.71875 C 8.144531 -30.070312 8.46875 -29.300781 8.46875 -28.40625 C 8.46875 -27.519531 8.148438 -26.757812 7.515625 -26.125 C 6.890625 -25.5 6.128906 -25.1875 5.234375 -25.1875 C 4.335938 -25.1875 3.578125 -25.5 2.953125 -26.125 C 2.328125 -26.757812 2.015625 -27.519531 2.015625 -28.40625 C 2.015625 -29.300781 2.328125 -30.070312 2.953125 -30.71875 C 3.578125 -31.363281 4.335938 -31.6875 5.234375 -31.6875 C 6.128906 -31.6875 6.882812 -31.363281 7.5 -30.71875 Z M 7.5 -30.71875 "/></g></g></g><g fill="#e3c902" fill-opacity="1"><g transform="translate(128.539729, 404.125948)"><g><path d="M 16.46875 -6.5 C 16.46875 -4.34375 15.65625 -2.617188 14.03125 -1.328125 C 12.414062 -0.046875 10.503906 0.59375 8.296875 0.59375 C 5.835938 0.59375 3.519531 -0.0078125 1.34375 -1.21875 L 3.140625 -4.65625 C 5.046875 -3.53125 6.625 -2.96875 7.875 -2.96875 C 8.769531 -2.96875 9.515625 -3.195312 10.109375 -3.65625 C 10.710938 -4.125 11.015625 -4.789062 11.015625 -5.65625 C 11.015625 -6.40625 10.703125 -7.03125 10.078125 -7.53125 C 9.453125 -8.039062 8.691406 -8.445312 7.796875 -8.75 C 6.898438 -9.0625 6 -9.421875 5.09375 -9.828125 C 4.1875 -10.234375 3.414062 -10.851562 2.78125 -11.6875 C 2.15625 -12.53125 1.84375 -13.578125 1.84375 -14.828125 C 1.84375 -16.929688 2.644531 -18.546875 4.25 -19.671875 C 5.851562 -20.804688 7.734375 -21.375 9.890625 -21.375 C 12.265625 -21.375 14.316406 -20.941406 16.046875 -20.078125 L 14.296875 -16.546875 C 13.066406 -17.503906 11.679688 -17.984375 10.140625 -17.984375 C 9.359375 -17.984375 8.6875 -17.789062 8.125 -17.40625 C 7.570312 -17.03125 7.296875 -16.476562 7.296875 -15.75 C 7.296875 -15.050781 7.609375 -14.476562 8.234375 -14.03125 C 8.859375 -13.59375 9.625 -13.210938 10.53125 -12.890625 C 11.445312 -12.566406 12.347656 -12.191406 13.234375 -11.765625 C 14.128906 -11.347656 14.890625 -10.695312 15.515625 -9.8125 C 16.148438 -8.9375 16.46875 -7.832031 16.46875 -6.5 Z M 16.46875 -6.5 "/></g></g></g><g fill="#e3c902" fill-opacity="1"><g transform="translate(146.560324, 404.125948)"><g><path d="M 22.203125 -10.640625 C 22.203125 -7.453125 21.347656 -4.8125 19.640625 -2.71875 C 17.941406 -0.625 15.546875 0.421875 12.453125 0.421875 C 10.492188 0.421875 8.941406 -0.0234375 7.796875 -0.921875 C 7.847656 0.222656 7.875 1.035156 7.875 1.515625 L 7.875 6.78125 C 8.207031 8.1875 8.40625 8.957031 8.46875 9.09375 L 2.8125 9.09375 L 2.8125 -14.953125 C 2.8125 -17.585938 2.40625 -19.488281 1.59375 -20.65625 L 6.828125 -21.28125 C 7.109375 -20.53125 7.316406 -19.695312 7.453125 -18.78125 C 8.046875 -19.582031 8.898438 -20.222656 10.015625 -20.703125 C 11.128906 -21.179688 12.207031 -21.421875 13.25 -21.421875 C 16.0625 -21.421875 18.253906 -20.359375 19.828125 -18.234375 C 21.410156 -16.109375 22.203125 -13.578125 22.203125 -10.640625 Z M 16.71875 -10.4375 C 16.71875 -12.28125 16.328125 -13.945312 15.546875 -15.4375 C 14.765625 -16.9375 13.535156 -17.6875 11.859375 -17.6875 C 11.109375 -17.6875 10.359375 -17.484375 9.609375 -17.078125 C 8.867188 -16.671875 8.289062 -16.144531 7.875 -15.5 L 7.875 -8.671875 C 7.875 -7.078125 8.195312 -5.753906 8.84375 -4.703125 C 9.488281 -3.660156 10.550781 -3.140625 12.03125 -3.140625 C 13.175781 -3.140625 14.117188 -3.566406 14.859375 -4.421875 C 15.597656 -5.273438 16.09375 -6.210938 16.34375 -7.234375 C 16.59375 -8.253906 16.71875 -9.320312 16.71875 -10.4375 Z M 16.71875 -10.4375 "/></g></g></g><g fill="#e3c902" fill-opacity="1"><g transform="translate(169.861373, 404.125948)"><g><path d="M 1.09375 -10.4375 C 1.09375 -13.507812 2.019531 -16.097656 3.875 -18.203125 C 5.726562 -20.316406 8.179688 -21.375 11.234375 -21.375 C 14.304688 -21.375 16.765625 -20.328125 18.609375 -18.234375 C 20.453125 -16.140625 21.375 -13.539062 21.375 -10.4375 C 21.375 -7.332031 20.453125 -4.734375 18.609375 -2.640625 C 16.765625 -0.546875 14.304688 0.5 11.234375 0.5 C 8.160156 0.5 5.703125 -0.546875 3.859375 -2.640625 C 2.015625 -4.734375 1.09375 -7.332031 1.09375 -10.4375 Z M 11.234375 -17.9375 C 10.054688 -17.9375 9.097656 -17.488281 8.359375 -16.59375 C 7.617188 -15.695312 7.144531 -14.734375 6.9375 -13.703125 C 6.726562 -12.671875 6.625 -11.566406 6.625 -10.390625 C 6.625 -9.210938 6.726562 -8.109375 6.9375 -7.078125 C 7.144531 -6.046875 7.617188 -5.082031 8.359375 -4.1875 C 9.097656 -3.289062 10.054688 -2.84375 11.234375 -2.84375 C 12.148438 -2.84375 12.9375 -3.082031 13.59375 -3.5625 C 14.25 -4.039062 14.722656 -4.679688 15.015625 -5.484375 C 15.316406 -6.296875 15.53125 -7.09375 15.65625 -7.875 C 15.78125 -8.65625 15.84375 -9.492188 15.84375 -10.390625 C 15.84375 -11.285156 15.78125 -12.125 15.65625 -12.90625 C 15.53125 -13.6875 15.316406 -14.484375 15.015625 -15.296875 C 14.722656 -16.109375 14.25 -16.75 13.59375 -17.21875 C 12.9375 -17.695312 12.148438 -17.9375 11.234375 -17.9375 Z M 11.234375 -17.9375 "/></g></g></g><g fill="#e3c902" fill-opacity="1"><g transform="translate(192.324262, 404.125948)"><g><path d="M 20.359375 0 L 15.296875 0 L 15.296875 -13.578125 C 15.296875 -14.359375 15.253906 -14.992188 15.171875 -15.484375 C 15.085938 -15.972656 14.832031 -16.421875 14.40625 -16.828125 C 13.988281 -17.234375 13.40625 -17.4375 12.65625 -17.4375 C 12.039062 -17.4375 11.25 -17.175781 10.28125 -16.65625 C 9.320312 -16.132812 8.601562 -15.625 8.125 -15.125 L 8.125 0 L 3.09375 0 L 3.09375 -14.921875 C 3.09375 -17.710938 2.660156 -19.625 1.796875 -20.65625 L 7.078125 -21.28125 C 7.410156 -20.5625 7.648438 -19.671875 7.796875 -18.609375 C 9.859375 -20.484375 11.984375 -21.421875 14.171875 -21.421875 C 16.429688 -21.421875 18.023438 -20.789062 18.953125 -19.53125 C 19.890625 -18.269531 20.359375 -16.453125 20.359375 -14.078125 Z M 20.359375 0 "/></g></g></g><g fill="#e3c902" fill-opacity="1"><g transform="translate(215.248134, 404.125948)"><g><path d="M 7.75 0 L 2.71875 0 L 2.71875 -18.5625 C 2.71875 -18.59375 2.679688 -18.773438 2.609375 -19.109375 C 2.546875 -19.441406 2.472656 -19.800781 2.390625 -20.1875 C 2.304688 -20.582031 2.265625 -20.796875 2.265625 -20.828125 L 7.75 -20.828125 Z M 7.5 -30.71875 C 8.144531 -30.070312 8.46875 -29.300781 8.46875 -28.40625 C 8.46875 -27.519531 8.148438 -26.757812 7.515625 -26.125 C 6.890625 -25.5 6.128906 -25.1875 5.234375 -25.1875 C 4.335938 -25.1875 3.578125 -25.5 2.953125 -26.125 C 2.328125 -26.757812 2.015625 -27.519531 2.015625 -28.40625 C 2.015625 -29.300781 2.328125 -30.070312 2.953125 -30.71875 C 3.578125 -31.363281 4.335938 -31.6875 5.234375 -31.6875 C 6.128906 -31.6875 6.882812 -31.363281 7.5 -30.71875 Z M 7.5 -30.71875 "/></g></g></g><g fill="#e3c902" fill-opacity="1"><g transform="translate(225.767133, 404.125948)"><g><path d="M 22.203125 -10.515625 C 22.203125 -7.441406 21.316406 -4.835938 19.546875 -2.703125 C 17.773438 -0.566406 15.378906 0.5 12.359375 0.5 C 9.785156 0.5 7.71875 -0.460938 6.15625 -2.390625 L 5.28125 0.046875 L 2.6875 0.046875 C 2.789062 -1.179688 2.84375 -2.101562 2.84375 -2.71875 L 2.84375 -29.875 C 2.84375 -29.90625 2.753906 -30.273438 2.578125 -30.984375 C 2.398438 -31.703125 2.296875 -32.101562 2.265625 -32.1875 L 7.875 -32.1875 L 7.875 -22.046875 C 7.875 -21.367188 7.859375 -20.726562 7.828125 -20.125 C 7.804688 -19.53125 7.796875 -19.207031 7.796875 -19.15625 C 9.472656 -20.570312 11.441406 -21.28125 13.703125 -21.28125 C 15.492188 -21.28125 17.050781 -20.722656 18.375 -19.609375 C 19.695312 -18.492188 20.664062 -17.128906 21.28125 -15.515625 C 21.894531 -13.910156 22.203125 -12.242188 22.203125 -10.515625 Z M 16.71875 -10.265625 C 16.71875 -11.328125 16.578125 -12.367188 16.296875 -13.390625 C 16.015625 -14.410156 15.5 -15.335938 14.75 -16.171875 C 14 -17.015625 13.078125 -17.4375 11.984375 -17.4375 C 10.453125 -17.4375 9.082031 -16.765625 7.875 -15.421875 L 7.875 -8.59375 C 7.875 -7 8.222656 -5.65625 8.921875 -4.5625 C 9.617188 -3.476562 10.722656 -2.9375 12.234375 -2.9375 C 13.347656 -2.9375 14.257812 -3.375 14.96875 -4.25 C 15.6875 -5.132812 16.15625 -6.082031 16.375 -7.09375 C 16.601562 -8.113281 16.71875 -9.171875 16.71875 -10.265625 Z M 16.71875 -10.265625 "/></g></g></g><g fill="#e3c902" fill-opacity="1"><g transform="translate(249.151999, 404.125948)"><g><path d="M 7.75 0 L 2.640625 0 L 2.640625 -29.96875 C 2.640625 -29.988281 2.601562 -30.164062 2.53125 -30.5 C 2.46875 -30.84375 2.390625 -31.207031 2.296875 -31.59375 C 2.210938 -31.988281 2.171875 -32.195312 2.171875 -32.21875 L 7.75 -32.21875 Z M 7.75 0 "/></g></g></g><g fill="#e3c902" fill-opacity="1"><g transform="translate(259.670998, 404.125948)"><g><path d="M 19.53125 -12.328125 C 19.53125 -10.648438 18.816406 -9.8125 17.390625 -9.8125 L 6.40625 -9.8125 C 6.40625 -8.019531 6.878906 -6.414062 7.828125 -5 C 8.785156 -3.59375 10.113281 -2.890625 11.8125 -2.890625 C 12.675781 -2.890625 13.578125 -3.097656 14.515625 -3.515625 C 15.453125 -3.941406 16.242188 -4.472656 16.890625 -5.109375 L 19.03125 -1.765625 C 18.15625 -1.035156 17.015625 -0.476562 15.609375 -0.09375 C 14.203125 0.28125 12.851562 0.46875 11.5625 0.46875 C 8.320312 0.46875 5.765625 -0.5 3.890625 -2.4375 C 2.023438 -4.382812 1.09375 -6.992188 1.09375 -10.265625 C 1.09375 -13.367188 1.960938 -16.003906 3.703125 -18.171875 C 5.453125 -20.335938 7.835938 -21.421875 10.859375 -21.421875 C 13.585938 -21.421875 15.710938 -20.59375 17.234375 -18.9375 C 18.765625 -17.289062 19.53125 -15.085938 19.53125 -12.328125 Z M 14.296875 -14.03125 C 14.296875 -15.175781 14 -16.117188 13.40625 -16.859375 C 12.820312 -17.609375 11.984375 -17.984375 10.890625 -17.984375 C 9.773438 -17.984375 8.785156 -17.460938 7.921875 -16.421875 C 7.054688 -15.390625 6.59375 -14.285156 6.53125 -13.109375 L 13.578125 -13.109375 C 14.054688 -13.109375 14.296875 -13.414062 14.296875 -14.03125 Z M 14.296875 -14.03125 "/></g></g></g></svg>