<svg xmlns="http://www.w3.org/2000/svg" xmlns:xlink="http://www.w3.org/1999/xlink" width="600" zoomAndPan="magnify" viewBox="0 0 450 149.999998" height="200" preserveAspectRatio="xMidYMid meet" version="1.0"><defs><g/></defs><g fill="#ffffff" fill-opacity="1"><g transform="translate(15.015678, 77.626463)"><g><path d="M 29.859375 -12.9375 C 29.859375 -8.6875 28.363281 -5.347656 25.375 -2.921875 C 22.382812 -0.492188 18.722656 0.71875 14.390625 0.71875 C 8.890625 0.71875 4.171875 -0.441406 0.234375 -2.765625 L 3.0625 -9.453125 C 6.195312 -6.523438 9.710938 -5.0625 13.609375 -5.0625 C 15.648438 -5.0625 17.398438 -5.617188 18.859375 -6.734375 C 20.328125 -7.859375 21.0625 -9.425781 21.0625 -11.4375 C 21.0625 -12.882812 20.578125 -14.164062 19.609375 -15.28125 C 18.648438 -16.40625 17.457031 -17.289062 16.03125 -17.9375 C 14.613281 -18.582031 13.0625 -19.332031 11.375 -20.1875 C 9.6875 -21.050781 8.128906 -21.925781 6.703125 -22.8125 C 5.285156 -23.695312 4.09375 -24.953125 3.125 -26.578125 C 2.164062 -28.203125 1.6875 -30.078125 1.6875 -32.203125 C 1.6875 -36.335938 3.117188 -39.46875 5.984375 -41.59375 C 8.859375 -43.71875 12.679688 -44.78125 17.453125 -44.78125 C 19.253906 -44.78125 21.335938 -44.414062 23.703125 -43.6875 C 26.078125 -42.96875 27.882812 -42.128906 29.125 -41.171875 L 24.984375 -35.984375 C 22.734375 -37.992188 19.960938 -39 16.671875 -39 C 14.984375 -39 13.523438 -38.554688 12.296875 -37.671875 C 11.078125 -36.796875 10.46875 -35.554688 10.46875 -33.953125 C 10.46875 -32.546875 10.945312 -31.3125 11.90625 -30.25 C 12.875 -29.1875 14.070312 -28.332031 15.5 -27.6875 C 16.925781 -27.039062 18.476562 -26.273438 20.15625 -25.390625 C 21.84375 -24.515625 23.398438 -23.625 24.828125 -22.71875 C 26.253906 -21.8125 27.445312 -20.515625 28.40625 -18.828125 C 29.375 -17.148438 29.859375 -15.1875 29.859375 -12.9375 Z M 29.859375 -12.9375 "/></g></g></g><g fill="#ffffff" fill-opacity="1"><g transform="translate(46.066766, 77.626463)"><g><path d="M 39.125 0 L 30.8125 0 L 30.8125 -19.6875 L 12.34375 -19.6875 L 12.34375 0 L 4.03125 0 L 4.03125 -40.390625 C 4.03125 -40.429688 3.957031 -40.726562 3.8125 -41.28125 C 3.675781 -41.84375 3.535156 -42.425781 3.390625 -43.03125 C 3.253906 -43.632812 3.1875 -43.976562 3.1875 -44.0625 L 12.34375 -44.0625 L 12.34375 -25.640625 L 30.8125 -25.640625 L 30.8125 -44.0625 L 39.125 -44.0625 Z M 39.125 0 "/></g></g></g><g fill="#ffffff" fill-opacity="1"><g transform="translate(89.03279, 77.626463)"><g><path d="M 37.859375 0 L 28.953125 0 L 24.609375 -12.640625 L 11.609375 -12.640625 L 7.109375 0 L 0.125 0 L 15.703125 -44.0625 L 22.265625 -44.0625 Z M 22.625 -18.53125 C 20.695312 -24.4375 19.175781 -29.453125 18.0625 -33.578125 C 16.695312 -28.566406 15.226562 -23.550781 13.65625 -18.53125 Z M 22.625 -18.53125 "/></g></g></g><g fill="#ffffff" fill-opacity="1"><g transform="translate(127.004174, 77.626463)"><g><path d="M 40.203125 0.0625 L 35.9375 0.0625 L 33.890625 -4.515625 C 31.878906 -2.671875 29.867188 -1.347656 27.859375 -0.546875 C 25.859375 0.253906 23.492188 0.65625 20.765625 0.65625 C 14.503906 0.65625 9.6875 -1.4375 6.3125 -5.625 C 2.945312 -9.820312 1.265625 -15.148438 1.265625 -21.609375 C 1.265625 -28.628906 3.207031 -34.242188 7.09375 -38.453125 C 10.988281 -42.671875 16.390625 -44.78125 23.296875 -44.78125 C 26.023438 -44.78125 28.875 -44.378906 31.84375 -43.578125 C 34.8125 -42.773438 37.117188 -41.59375 38.765625 -40.03125 L 34.359375 -35.09375 C 32.234375 -36.65625 30.457031 -37.71875 29.03125 -38.28125 C 27.613281 -38.84375 25.703125 -39.125 23.296875 -39.125 C 20.117188 -39.125 17.5 -38.289062 15.4375 -36.625 C 13.375 -34.957031 11.945312 -32.910156 11.15625 -30.484375 C 10.375 -28.054688 9.984375 -25.28125 9.984375 -22.15625 C 9.984375 -20.1875 10.210938 -18.25 10.671875 -16.34375 C 11.140625 -14.4375 11.820312 -12.617188 12.71875 -10.890625 C 13.625 -9.171875 14.898438 -7.773438 16.546875 -6.703125 C 18.191406 -5.640625 20.0625 -5.109375 22.15625 -5.109375 C 25 -5.109375 27.289062 -5.953125 29.03125 -7.640625 C 30.78125 -9.328125 31.65625 -11.59375 31.65625 -14.4375 L 31.65625 -18.171875 L 22.515625 -18.171875 L 23.296875 -23.46875 L 40.03125 -23.46875 C 39.945312 -18.570312 39.90625 -14.882812 39.90625 -12.40625 C 39.90625 -7.539062 40.003906 -3.382812 40.203125 0.0625 Z M 40.203125 0.0625 "/></g></g></g><g fill="#ffffff" fill-opacity="1"><g transform="translate(169.548963, 77.626463)"><g><path d="M 37.859375 0 L 28.953125 0 L 24.609375 -12.640625 L 11.609375 -12.640625 L 7.109375 0 L 0.125 0 L 15.703125 -44.0625 L 22.265625 -44.0625 Z M 22.625 -18.53125 C 20.695312 -24.4375 19.175781 -29.453125 18.0625 -33.578125 C 16.695312 -28.566406 15.226562 -23.550781 13.65625 -18.53125 Z M 22.625 -18.53125 "/></g></g></g><g fill="#ffffff" fill-opacity="1"><g transform="translate(207.520346, 77.626463)"><g><path d="M 39.125 0.296875 L 32.625 0.296875 L 12.8125 -29.90625 C 11.457031 -32.039062 10.617188 -33.390625 10.296875 -33.953125 C 10.535156 -31.296875 10.65625 -29.945312 10.65625 -29.90625 L 10.65625 0 L 3.96875 0 L 3.96875 -40.328125 C 3.96875 -40.367188 3.894531 -40.671875 3.75 -41.234375 C 3.613281 -41.796875 3.472656 -42.375 3.328125 -42.96875 C 3.191406 -43.570312 3.125 -43.914062 3.125 -44 L 13 -44 L 30.328125 -17.640625 C 30.929688 -16.753906 31.753906 -15.425781 32.796875 -13.65625 C 32.554688 -16.664062 32.4375 -18.210938 32.4375 -18.296875 L 32.4375 -44 L 39.125 -44 Z M 39.125 0.296875 "/></g></g></g><g fill="#ffffff" fill-opacity="1"><g transform="translate(250.486371, 77.626463)"><g><path d="M 39.125 0.296875 L 32.625 0.296875 L 12.8125 -29.90625 C 11.457031 -32.039062 10.617188 -33.390625 10.296875 -33.953125 C 10.535156 -31.296875 10.65625 -29.945312 10.65625 -29.90625 L 10.65625 0 L 3.96875 0 L 3.96875 -40.328125 C 3.96875 -40.367188 3.894531 -40.671875 3.75 -41.234375 C 3.613281 -41.796875 3.472656 -42.375 3.328125 -42.96875 C 3.191406 -43.570312 3.125 -43.914062 3.125 -44 L 13 -44 L 30.328125 -17.640625 C 30.929688 -16.753906 31.753906 -15.425781 32.796875 -13.65625 C 32.554688 -16.664062 32.4375 -18.210938 32.4375 -18.296875 L 32.4375 -44 L 39.125 -44 Z M 39.125 0.296875 "/></g></g></g><g fill="#ffffff" fill-opacity="1"><g transform="translate(293.45241, 77.626463)"><g><path d="M 30.8125 0 L 4.03125 0 L 4.03125 -40.390625 L 3.125 -44.0625 L 30.8125 -44.0625 L 30.8125 -38.09375 L 12.28125 -38.09375 L 12.28125 -25.640625 L 26.484375 -25.640625 L 26.484375 -19.6875 L 12.28125 -19.6875 L 12.28125 -5.953125 L 30.8125 -5.953125 Z M 30.8125 0 "/></g></g></g><g fill="#ffffff" fill-opacity="1"><g transform="translate(326.489313, 77.626463)"><g><path d="M 40.921875 -21.96875 C 40.921875 -15.226562 38.859375 -9.8125 34.734375 -5.71875 C 30.921875 -1.90625 25.90625 0 19.6875 0 L 4.03125 0 L 4.03125 -40.390625 C 4.03125 -40.429688 3.878906 -41.019531 3.578125 -42.15625 C 3.273438 -43.300781 3.101562 -43.9375 3.0625 -44.0625 L 19.734375 -44.0625 C 26.359375 -44.0625 31.546875 -42.039062 35.296875 -38 C 39.046875 -33.96875 40.921875 -28.625 40.921875 -21.96875 Z M 32.015625 -21.734375 C 32.015625 -24.617188 31.613281 -27.242188 30.8125 -29.609375 C 30.007812 -31.972656 28.613281 -33.976562 26.625 -35.625 C 24.644531 -37.269531 22.171875 -38.09375 19.203125 -38.09375 L 12.34375 -38.09375 L 12.34375 -5.953125 L 19.3125 -5.953125 C 21.519531 -5.953125 23.46875 -6.382812 25.15625 -7.25 C 26.84375 -8.113281 28.164062 -9.296875 29.125 -10.796875 C 30.09375 -12.304688 30.816406 -13.972656 31.296875 -15.796875 C 31.773438 -17.617188 32.015625 -19.597656 32.015625 -21.734375 Z M 32.015625 -21.734375 "/></g></g></g><g fill="#ffffff" fill-opacity="1"><g transform="translate(368.552706, 77.626463)"><g><path d="M 34.546875 -44.0625 L 21.484375 -20.046875 L 21.484375 0 L 13.484375 0 L 13.484375 -20.046875 L 0.609375 -44.0625 L 9.515625 -44.0625 L 18.296875 -27.6875 L 27.328125 -44.0625 Z M 34.546875 -44.0625 "/></g></g></g><g fill="#ffffff" fill-opacity="1"><g transform="translate(403.695788, 77.626463)"><g><path d="M 29.859375 -12.9375 C 29.859375 -8.6875 28.363281 -5.347656 25.375 -2.921875 C 22.382812 -0.492188 18.722656 0.71875 14.390625 0.71875 C 8.890625 0.71875 4.171875 -0.441406 0.234375 -2.765625 L 3.0625 -9.453125 C 6.195312 -6.523438 9.710938 -5.0625 13.609375 -5.0625 C 15.648438 -5.0625 17.398438 -5.617188 18.859375 -6.734375 C 20.328125 -7.859375 21.0625 -9.425781 21.0625 -11.4375 C 21.0625 -12.882812 20.578125 -14.164062 19.609375 -15.28125 C 18.648438 -16.40625 17.457031 -17.289062 16.03125 -17.9375 C 14.613281 -18.582031 13.0625 -19.332031 11.375 -20.1875 C 9.6875 -21.050781 8.128906 -21.925781 6.703125 -22.8125 C 5.285156 -23.695312 4.09375 -24.953125 3.125 -26.578125 C 2.164062 -28.203125 1.6875 -30.078125 1.6875 -32.203125 C 1.6875 -36.335938 3.117188 -39.46875 5.984375 -41.59375 C 8.859375 -43.71875 12.679688 -44.78125 17.453125 -44.78125 C 19.253906 -44.78125 21.335938 -44.414062 23.703125 -43.6875 C 26.078125 -42.96875 27.882812 -42.128906 29.125 -41.171875 L 24.984375 -35.984375 C 22.734375 -37.992188 19.960938 -39 16.671875 -39 C 14.984375 -39 13.523438 -38.554688 12.296875 -37.671875 C 11.078125 -36.796875 10.46875 -35.554688 10.46875 -33.953125 C 10.46875 -32.546875 10.945312 -31.3125 11.90625 -30.25 C 12.875 -29.1875 14.070312 -28.332031 15.5 -27.6875 C 16.925781 -27.039062 18.476562 -26.273438 20.15625 -25.390625 C 21.84375 -24.515625 23.398438 -23.625 24.828125 -22.71875 C 26.253906 -21.8125 27.445312 -20.515625 28.40625 -18.828125 C 29.375 -17.148438 29.859375 -15.1875 29.859375 -12.9375 Z M 29.859375 -12.9375 "/></g></g></g><g fill="#dc9c0f" fill-opacity="1"><g transform="translate(15.468753, 120.379368)"><g><path d="M 0.6875 -5.40625 C 0.6875 -7.195312 0.90625 -8.8125 1.34375 -10.25 C 1.78125 -11.6875 2.425781 -12.914062 3.28125 -13.9375 L 6.3125 -13.9375 C 5.53125 -12.863281 4.925781 -11.59375 4.5 -10.125 C 4.082031 -8.65625 3.875 -7.085938 3.875 -5.421875 C 3.875 -3.804688 4.078125 -2.269531 4.484375 -0.8125 C 4.898438 0.632812 5.503906 1.90625 6.296875 3 L 3.28125 3 C 2.4375 2.03125 1.789062 0.832031 1.34375 -0.59375 C 0.90625 -2.019531 0.6875 -3.625 0.6875 -5.40625 Z M 4.578125 -13.78125 Z M 4.578125 -13.78125 "/></g></g></g><g fill="#dc9c0f" fill-opacity="1"><g transform="translate(22.286204, 120.379368)"><g><path d="M 1.46875 0 L 1.46875 -13.5625 L 5.125 -13.5625 L 5.125 -2.953125 L 10.359375 -2.953125 L 10.359375 0 Z M 1.46875 0 "/></g></g></g><g fill="#dc9c0f" fill-opacity="1"><g transform="translate(33.342524, 120.379368)"><g><path d="M 8.109375 0 L 7.40625 -1.390625 L 7.34375 -1.390625 C 6.851562 -0.785156 6.351562 -0.367188 5.84375 -0.140625 C 5.332031 0.078125 4.675781 0.1875 3.875 0.1875 C 2.882812 0.1875 2.101562 -0.109375 1.53125 -0.703125 C 0.96875 -1.296875 0.6875 -2.128906 0.6875 -3.203125 C 0.6875 -4.328125 1.078125 -5.160156 1.859375 -5.703125 C 2.640625 -6.253906 3.765625 -6.566406 5.234375 -6.640625 L 7 -6.6875 L 7 -6.84375 C 7 -7.707031 6.570312 -8.140625 5.71875 -8.140625 C 4.945312 -8.140625 3.972656 -7.878906 2.796875 -7.359375 L 1.75 -9.75 C 2.96875 -10.382812 4.515625 -10.703125 6.390625 -10.703125 C 7.734375 -10.703125 8.773438 -10.363281 9.515625 -9.6875 C 10.253906 -9.019531 10.625 -8.085938 10.625 -6.890625 L 10.625 0 Z M 5.421875 -2.375 C 5.859375 -2.375 6.234375 -2.507812 6.546875 -2.78125 C 6.859375 -3.0625 7.015625 -3.425781 7.015625 -3.875 L 7.015625 -4.6875 L 6.171875 -4.65625 C 4.984375 -4.613281 4.390625 -4.175781 4.390625 -3.34375 C 4.390625 -2.695312 4.734375 -2.375 5.421875 -2.375 Z M 5.421875 -2.375 "/></g></g></g><g fill="#dc9c0f" fill-opacity="1"><g transform="translate(45.17798, 120.379368)"><g><path d="M 9.375 -3.234375 C 9.375 -2.109375 8.988281 -1.253906 8.21875 -0.671875 C 7.445312 -0.0976562 6.347656 0.1875 4.921875 0.1875 C 4.140625 0.1875 3.457031 0.144531 2.875 0.0625 C 2.300781 -0.0195312 1.71875 -0.175781 1.125 -0.40625 L 1.125 -3.296875 C 1.6875 -3.054688 2.300781 -2.851562 2.96875 -2.6875 C 3.644531 -2.53125 4.242188 -2.453125 4.765625 -2.453125 C 5.554688 -2.453125 5.953125 -2.628906 5.953125 -2.984375 C 5.953125 -3.171875 5.835938 -3.335938 5.609375 -3.484375 C 5.390625 -3.628906 4.753906 -3.910156 3.703125 -4.328125 C 2.734375 -4.722656 2.054688 -5.171875 1.671875 -5.671875 C 1.296875 -6.179688 1.109375 -6.820312 1.109375 -7.59375 C 1.109375 -8.570312 1.484375 -9.332031 2.234375 -9.875 C 2.992188 -10.425781 4.0625 -10.703125 5.4375 -10.703125 C 6.125 -10.703125 6.769531 -10.625 7.375 -10.46875 C 7.988281 -10.320312 8.625 -10.101562 9.28125 -9.8125 L 8.296875 -7.46875 C 7.816406 -7.6875 7.304688 -7.867188 6.765625 -8.015625 C 6.234375 -8.171875 5.796875 -8.25 5.453125 -8.25 C 4.859375 -8.25 4.5625 -8.101562 4.5625 -7.8125 C 4.5625 -7.632812 4.664062 -7.476562 4.875 -7.34375 C 5.082031 -7.21875 5.679688 -6.960938 6.671875 -6.578125 C 7.410156 -6.273438 7.957031 -5.976562 8.3125 -5.6875 C 8.675781 -5.394531 8.941406 -5.050781 9.109375 -4.65625 C 9.285156 -4.269531 9.375 -3.796875 9.375 -3.234375 Z M 9.375 -3.234375 "/></g></g></g><g fill="#dc9c0f" fill-opacity="1"><g transform="translate(55.306756, 120.379368)"><g/></g></g><g fill="#dc9c0f" fill-opacity="1"><g transform="translate(60.241288, 120.379368)"><g><path d="M 14.15625 0 L 14.15625 -5.71875 C 14.15625 -6.425781 14.054688 -6.957031 13.859375 -7.3125 C 13.671875 -7.664062 13.363281 -7.84375 12.9375 -7.84375 C 12.382812 -7.84375 11.976562 -7.601562 11.71875 -7.125 C 11.457031 -6.65625 11.328125 -5.914062 11.328125 -4.90625 L 11.328125 0 L 7.6875 0 L 7.6875 -5.71875 C 7.6875 -6.425781 7.59375 -6.957031 7.40625 -7.3125 C 7.226562 -7.664062 6.929688 -7.84375 6.515625 -7.84375 C 5.941406 -7.84375 5.523438 -7.585938 5.265625 -7.078125 C 5.003906 -6.578125 4.875 -5.753906 4.875 -4.609375 L 4.875 0 L 1.25 0 L 1.25 -10.515625 L 3.984375 -10.515625 L 4.4375 -9.21875 L 4.65625 -9.21875 C 4.9375 -9.695312 5.335938 -10.0625 5.859375 -10.3125 C 6.390625 -10.570312 6.992188 -10.703125 7.671875 -10.703125 C 9.191406 -10.703125 10.253906 -10.238281 10.859375 -9.3125 L 11.15625 -9.3125 C 11.445312 -9.75 11.859375 -10.085938 12.390625 -10.328125 C 12.921875 -10.578125 13.503906 -10.703125 14.140625 -10.703125 C 15.378906 -10.703125 16.296875 -10.378906 16.890625 -9.734375 C 17.484375 -9.097656 17.78125 -8.132812 17.78125 -6.84375 L 17.78125 0 Z M 14.15625 0 "/></g></g></g><g fill="#dc9c0f" fill-opacity="1"><g transform="translate(79.23738, 120.379368)"><g><path d="M 6.328125 0.1875 C 4.578125 0.1875 3.21875 -0.273438 2.25 -1.203125 C 1.28125 -2.140625 0.796875 -3.46875 0.796875 -5.1875 C 0.796875 -6.957031 1.242188 -8.316406 2.140625 -9.265625 C 3.035156 -10.222656 4.316406 -10.703125 5.984375 -10.703125 C 7.566406 -10.703125 8.789062 -10.285156 9.65625 -9.453125 C 10.519531 -8.628906 10.953125 -7.441406 10.953125 -5.890625 L 10.953125 -4.28125 L 4.46875 -4.28125 C 4.488281 -3.6875 4.703125 -3.222656 5.109375 -2.890625 C 5.515625 -2.554688 6.066406 -2.390625 6.765625 -2.390625 C 7.398438 -2.390625 7.984375 -2.445312 8.515625 -2.5625 C 9.054688 -2.6875 9.640625 -2.894531 10.265625 -3.1875 L 10.265625 -0.578125 C 9.691406 -0.296875 9.101562 -0.0976562 8.5 0.015625 C 7.894531 0.128906 7.171875 0.1875 6.328125 0.1875 Z M 6.109375 -8.234375 C 5.679688 -8.234375 5.320312 -8.097656 5.03125 -7.828125 C 4.75 -7.554688 4.582031 -7.132812 4.53125 -6.5625 L 7.65625 -6.5625 C 7.644531 -7.0625 7.5 -7.460938 7.21875 -7.765625 C 6.945312 -8.078125 6.578125 -8.234375 6.109375 -8.234375 Z M 6.109375 -8.234375 "/></g></g></g><g fill="#dc9c0f" fill-opacity="1"><g transform="translate(90.980082, 120.379368)"><g><path d="M 0.984375 4.5625 C 0.679688 4.5625 0.335938 4.535156 -0.046875 4.484375 C -0.429688 4.441406 -0.738281 4.390625 -0.96875 4.328125 L -0.96875 1.5 C -0.570312 1.613281 -0.195312 1.671875 0.15625 1.671875 C 0.882812 1.671875 1.25 1.144531 1.25 0.09375 L 1.25 -10.515625 L 4.875 -10.515625 L 4.875 0.859375 C 4.875 2.015625 4.535156 2.921875 3.859375 3.578125 C 3.179688 4.234375 2.222656 4.5625 0.984375 4.5625 Z M 1.15625 -13.125 C 1.15625 -13.664062 1.304688 -14.066406 1.609375 -14.328125 C 1.910156 -14.597656 2.398438 -14.734375 3.078125 -14.734375 C 3.753906 -14.734375 4.242188 -14.597656 4.546875 -14.328125 C 4.859375 -14.054688 5.015625 -13.65625 5.015625 -13.125 C 5.015625 -12.0625 4.367188 -11.53125 3.078125 -11.53125 C 1.796875 -11.53125 1.15625 -12.0625 1.15625 -13.125 Z M 1.15625 -13.125 "/></g></g></g><g fill="#dc9c0f" fill-opacity="1"><g transform="translate(97.138971, 120.379368)"><g><path d="M 11.296875 -5.28125 C 11.296875 -3.5625 10.832031 -2.21875 9.90625 -1.25 C 8.976562 -0.289062 7.679688 0.1875 6.015625 0.1875 C 4.421875 0.1875 3.148438 -0.300781 2.203125 -1.28125 C 1.265625 -2.269531 0.796875 -3.601562 0.796875 -5.28125 C 0.796875 -6.988281 1.257812 -8.316406 2.1875 -9.265625 C 3.113281 -10.222656 4.410156 -10.703125 6.078125 -10.703125 C 7.109375 -10.703125 8.019531 -10.476562 8.8125 -10.03125 C 9.601562 -9.59375 10.210938 -8.960938 10.640625 -8.140625 C 11.078125 -7.328125 11.296875 -6.375 11.296875 -5.28125 Z M 4.484375 -5.28125 C 4.484375 -4.375 4.601562 -3.679688 4.84375 -3.203125 C 5.082031 -2.734375 5.488281 -2.5 6.0625 -2.5 C 6.625 -2.5 7.019531 -2.734375 7.25 -3.203125 C 7.476562 -3.679688 7.59375 -4.375 7.59375 -5.28125 C 7.59375 -6.175781 7.472656 -6.851562 7.234375 -7.3125 C 7.003906 -7.769531 6.609375 -8 6.046875 -8 C 5.484375 -8 5.082031 -7.769531 4.84375 -7.3125 C 4.601562 -6.863281 4.484375 -6.1875 4.484375 -5.28125 Z M 4.484375 -5.28125 "/></g></g></g><g fill="#dc9c0f" fill-opacity="1"><g transform="translate(109.243421, 120.379368)"><g><path d="M 7.59375 -10.703125 C 7.914062 -10.703125 8.21875 -10.675781 8.5 -10.625 L 8.703125 -10.578125 L 8.375 -7.15625 C 8.082031 -7.238281 7.671875 -7.28125 7.140625 -7.28125 C 6.347656 -7.28125 5.769531 -7.097656 5.40625 -6.734375 C 5.050781 -6.367188 4.875 -5.847656 4.875 -5.171875 L 4.875 0 L 1.25 0 L 1.25 -10.515625 L 3.953125 -10.515625 L 4.515625 -8.828125 L 4.6875 -8.828125 C 5 -9.390625 5.421875 -9.84375 5.953125 -10.1875 C 6.492188 -10.53125 7.039062 -10.703125 7.59375 -10.703125 Z M 7.59375 -10.703125 "/></g></g></g><g fill="#dc9c0f" fill-opacity="1"><g transform="translate(118.15712, 120.379368)"><g><path d="M 6.328125 0.1875 C 4.578125 0.1875 3.21875 -0.273438 2.25 -1.203125 C 1.28125 -2.140625 0.796875 -3.46875 0.796875 -5.1875 C 0.796875 -6.957031 1.242188 -8.316406 2.140625 -9.265625 C 3.035156 -10.222656 4.316406 -10.703125 5.984375 -10.703125 C 7.566406 -10.703125 8.789062 -10.285156 9.65625 -9.453125 C 10.519531 -8.628906 10.953125 -7.441406 10.953125 -5.890625 L 10.953125 -4.28125 L 4.46875 -4.28125 C 4.488281 -3.6875 4.703125 -3.222656 5.109375 -2.890625 C 5.515625 -2.554688 6.066406 -2.390625 6.765625 -2.390625 C 7.398438 -2.390625 7.984375 -2.445312 8.515625 -2.5625 C 9.054688 -2.6875 9.640625 -2.894531 10.265625 -3.1875 L 10.265625 -0.578125 C 9.691406 -0.296875 9.101562 -0.0976562 8.5 0.015625 C 7.894531 0.128906 7.171875 0.1875 6.328125 0.1875 Z M 6.109375 -8.234375 C 5.679688 -8.234375 5.320312 -8.097656 5.03125 -7.828125 C 4.75 -7.554688 4.582031 -7.132812 4.53125 -6.5625 L 7.65625 -6.5625 C 7.644531 -7.0625 7.5 -7.460938 7.21875 -7.765625 C 6.945312 -8.078125 6.578125 -8.234375 6.109375 -8.234375 Z M 6.109375 -8.234375 "/></g></g></g><g fill="#dc9c0f" fill-opacity="1"><g transform="translate(129.899822, 120.379368)"><g><path d="M 9.375 -3.234375 C 9.375 -2.109375 8.988281 -1.253906 8.21875 -0.671875 C 7.445312 -0.0976562 6.347656 0.1875 4.921875 0.1875 C 4.140625 0.1875 3.457031 0.144531 2.875 0.0625 C 2.300781 -0.0195312 1.71875 -0.175781 1.125 -0.40625 L 1.125 -3.296875 C 1.6875 -3.054688 2.300781 -2.851562 2.96875 -2.6875 C 3.644531 -2.53125 4.242188 -2.453125 4.765625 -2.453125 C 5.554688 -2.453125 5.953125 -2.628906 5.953125 -2.984375 C 5.953125 -3.171875 5.835938 -3.335938 5.609375 -3.484375 C 5.390625 -3.628906 4.753906 -3.910156 3.703125 -4.328125 C 2.734375 -4.722656 2.054688 -5.171875 1.671875 -5.671875 C 1.296875 -6.179688 1.109375 -6.820312 1.109375 -7.59375 C 1.109375 -8.570312 1.484375 -9.332031 2.234375 -9.875 C 2.992188 -10.425781 4.0625 -10.703125 5.4375 -10.703125 C 6.125 -10.703125 6.769531 -10.625 7.375 -10.46875 C 7.988281 -10.320312 8.625 -10.101562 9.28125 -9.8125 L 8.296875 -7.46875 C 7.816406 -7.6875 7.304688 -7.867188 6.765625 -8.015625 C 6.234375 -8.171875 5.796875 -8.25 5.453125 -8.25 C 4.859375 -8.25 4.5625 -8.101562 4.5625 -7.8125 C 4.5625 -7.632812 4.664062 -7.476562 4.875 -7.34375 C 5.082031 -7.21875 5.679688 -6.960938 6.671875 -6.578125 C 7.410156 -6.273438 7.957031 -5.976562 8.3125 -5.6875 C 8.675781 -5.394531 8.941406 -5.050781 9.109375 -4.65625 C 9.285156 -4.269531 9.375 -3.796875 9.375 -3.234375 Z M 9.375 -3.234375 "/></g></g></g><g fill="#dc9c0f" fill-opacity="1"><g transform="translate(140.028598, 120.379368)"><g/></g></g><g fill="#dc9c0f" fill-opacity="1"><g transform="translate(144.96313, 120.379368)"><g><path d="M 14.15625 0 L 14.15625 -5.71875 C 14.15625 -6.425781 14.054688 -6.957031 13.859375 -7.3125 C 13.671875 -7.664062 13.363281 -7.84375 12.9375 -7.84375 C 12.382812 -7.84375 11.976562 -7.601562 11.71875 -7.125 C 11.457031 -6.65625 11.328125 -5.914062 11.328125 -4.90625 L 11.328125 0 L 7.6875 0 L 7.6875 -5.71875 C 7.6875 -6.425781 7.59375 -6.957031 7.40625 -7.3125 C 7.226562 -7.664062 6.929688 -7.84375 6.515625 -7.84375 C 5.941406 -7.84375 5.523438 -7.585938 5.265625 -7.078125 C 5.003906 -6.578125 4.875 -5.753906 4.875 -4.609375 L 4.875 0 L 1.25 0 L 1.25 -10.515625 L 3.984375 -10.515625 L 4.4375 -9.21875 L 4.65625 -9.21875 C 4.9375 -9.695312 5.335938 -10.0625 5.859375 -10.3125 C 6.390625 -10.570312 6.992188 -10.703125 7.671875 -10.703125 C 9.191406 -10.703125 10.253906 -10.238281 10.859375 -9.3125 L 11.15625 -9.3125 C 11.445312 -9.75 11.859375 -10.085938 12.390625 -10.328125 C 12.921875 -10.578125 13.503906 -10.703125 14.140625 -10.703125 C 15.378906 -10.703125 16.296875 -10.378906 16.890625 -9.734375 C 17.484375 -9.097656 17.78125 -8.132812 17.78125 -6.84375 L 17.78125 0 Z M 14.15625 0 "/></g></g></g><g fill="#dc9c0f" fill-opacity="1"><g transform="translate(163.959223, 120.379368)"><g><path d="M 8.109375 0 L 7.40625 -1.390625 L 7.34375 -1.390625 C 6.851562 -0.785156 6.351562 -0.367188 5.84375 -0.140625 C 5.332031 0.078125 4.675781 0.1875 3.875 0.1875 C 2.882812 0.1875 2.101562 -0.109375 1.53125 -0.703125 C 0.96875 -1.296875 0.6875 -2.128906 0.6875 -3.203125 C 0.6875 -4.328125 1.078125 -5.160156 1.859375 -5.703125 C 2.640625 -6.253906 3.765625 -6.566406 5.234375 -6.640625 L 7 -6.6875 L 7 -6.84375 C 7 -7.707031 6.570312 -8.140625 5.71875 -8.140625 C 4.945312 -8.140625 3.972656 -7.878906 2.796875 -7.359375 L 1.75 -9.75 C 2.96875 -10.382812 4.515625 -10.703125 6.390625 -10.703125 C 7.734375 -10.703125 8.773438 -10.363281 9.515625 -9.6875 C 10.253906 -9.019531 10.625 -8.085938 10.625 -6.890625 L 10.625 0 Z M 5.421875 -2.375 C 5.859375 -2.375 6.234375 -2.507812 6.546875 -2.78125 C 6.859375 -3.0625 7.015625 -3.425781 7.015625 -3.875 L 7.015625 -4.6875 L 6.171875 -4.65625 C 4.984375 -4.613281 4.390625 -4.175781 4.390625 -3.34375 C 4.390625 -2.695312 4.734375 -2.375 5.421875 -2.375 Z M 5.421875 -2.375 "/></g></g></g><g fill="#dc9c0f" fill-opacity="1"><g transform="translate(175.794679, 120.379368)"><g><path d="M 7.59375 -10.703125 C 7.914062 -10.703125 8.21875 -10.675781 8.5 -10.625 L 8.703125 -10.578125 L 8.375 -7.15625 C 8.082031 -7.238281 7.671875 -7.28125 7.140625 -7.28125 C 6.347656 -7.28125 5.769531 -7.097656 5.40625 -6.734375 C 5.050781 -6.367188 4.875 -5.847656 4.875 -5.171875 L 4.875 0 L 1.25 0 L 1.25 -10.515625 L 3.953125 -10.515625 L 4.515625 -8.828125 L 4.6875 -8.828125 C 5 -9.390625 5.421875 -9.84375 5.953125 -10.1875 C 6.492188 -10.53125 7.039062 -10.703125 7.59375 -10.703125 Z M 7.59375 -10.703125 "/></g></g></g><g fill="#dc9c0f" fill-opacity="1"><g transform="translate(184.708378, 120.379368)"><g><path d="M 6.046875 0.1875 C 4.316406 0.1875 3.007812 -0.273438 2.125 -1.203125 C 1.238281 -2.128906 0.796875 -3.460938 0.796875 -5.203125 C 0.796875 -6.953125 1.273438 -8.304688 2.234375 -9.265625 C 3.191406 -10.222656 4.554688 -10.703125 6.328125 -10.703125 C 7.546875 -10.703125 8.691406 -10.4375 9.765625 -9.90625 L 8.703125 -7.21875 C 8.265625 -7.40625 7.859375 -7.554688 7.484375 -7.671875 C 7.117188 -7.785156 6.734375 -7.84375 6.328125 -7.84375 C 5.742188 -7.84375 5.289062 -7.613281 4.96875 -7.15625 C 4.644531 -6.695312 4.484375 -6.050781 4.484375 -5.21875 C 4.484375 -3.539062 5.101562 -2.703125 6.34375 -2.703125 C 7.40625 -2.703125 8.425781 -3.007812 9.40625 -3.625 L 9.40625 -0.75 C 8.46875 -0.125 7.347656 0.1875 6.046875 0.1875 Z M 6.046875 0.1875 "/></g></g></g><g fill="#dc9c0f" fill-opacity="1"><g transform="translate(194.94846, 120.379368)"><g><path d="M 8.109375 0 L 7.40625 -1.390625 L 7.34375 -1.390625 C 6.851562 -0.785156 6.351562 -0.367188 5.84375 -0.140625 C 5.332031 0.078125 4.675781 0.1875 3.875 0.1875 C 2.882812 0.1875 2.101562 -0.109375 1.53125 -0.703125 C 0.96875 -1.296875 0.6875 -2.128906 0.6875 -3.203125 C 0.6875 -4.328125 1.078125 -5.160156 1.859375 -5.703125 C 2.640625 -6.253906 3.765625 -6.566406 5.234375 -6.640625 L 7 -6.6875 L 7 -6.84375 C 7 -7.707031 6.570312 -8.140625 5.71875 -8.140625 C 4.945312 -8.140625 3.972656 -7.878906 2.796875 -7.359375 L 1.75 -9.75 C 2.96875 -10.382812 4.515625 -10.703125 6.390625 -10.703125 C 7.734375 -10.703125 8.773438 -10.363281 9.515625 -9.6875 C 10.253906 -9.019531 10.625 -8.085938 10.625 -6.890625 L 10.625 0 Z M 5.421875 -2.375 C 5.859375 -2.375 6.234375 -2.507812 6.546875 -2.78125 C 6.859375 -3.0625 7.015625 -3.425781 7.015625 -3.875 L 7.015625 -4.6875 L 6.171875 -4.65625 C 4.984375 -4.613281 4.390625 -4.175781 4.390625 -3.34375 C 4.390625 -2.695312 4.734375 -2.375 5.421875 -2.375 Z M 5.421875 -2.375 "/></g></g></g><g fill="#dc9c0f" fill-opacity="1"><g transform="translate(206.783916, 120.379368)"><g><path d="M 9.375 -3.234375 C 9.375 -2.109375 8.988281 -1.253906 8.21875 -0.671875 C 7.445312 -0.0976562 6.347656 0.1875 4.921875 0.1875 C 4.140625 0.1875 3.457031 0.144531 2.875 0.0625 C 2.300781 -0.0195312 1.71875 -0.175781 1.125 -0.40625 L 1.125 -3.296875 C 1.6875 -3.054688 2.300781 -2.851562 2.96875 -2.6875 C 3.644531 -2.53125 4.242188 -2.453125 4.765625 -2.453125 C 5.554688 -2.453125 5.953125 -2.628906 5.953125 -2.984375 C 5.953125 -3.171875 5.835938 -3.335938 5.609375 -3.484375 C 5.390625 -3.628906 4.753906 -3.910156 3.703125 -4.328125 C 2.734375 -4.722656 2.054688 -5.171875 1.671875 -5.671875 C 1.296875 -6.179688 1.109375 -6.820312 1.109375 -7.59375 C 1.109375 -8.570312 1.484375 -9.332031 2.234375 -9.875 C 2.992188 -10.425781 4.0625 -10.703125 5.4375 -10.703125 C 6.125 -10.703125 6.769531 -10.625 7.375 -10.46875 C 7.988281 -10.320312 8.625 -10.101562 9.28125 -9.8125 L 8.296875 -7.46875 C 7.816406 -7.6875 7.304688 -7.867188 6.765625 -8.015625 C 6.234375 -8.171875 5.796875 -8.25 5.453125 -8.25 C 4.859375 -8.25 4.5625 -8.101562 4.5625 -7.8125 C 4.5625 -7.632812 4.664062 -7.476562 4.875 -7.34375 C 5.082031 -7.21875 5.679688 -6.960938 6.671875 -6.578125 C 7.410156 -6.273438 7.957031 -5.976562 8.3125 -5.6875 C 8.675781 -5.394531 8.941406 -5.050781 9.109375 -4.65625 C 9.285156 -4.269531 9.375 -3.796875 9.375 -3.234375 Z M 9.375 -3.234375 "/></g></g></g><g fill="#dc9c0f" fill-opacity="1"><g transform="translate(216.91268, 120.379368)"><g/></g></g><g fill="#dc9c0f" fill-opacity="1"><g transform="translate(221.847212, 120.379368)"><g><path d="M 8.109375 0 L 7.40625 -1.390625 L 7.34375 -1.390625 C 6.851562 -0.785156 6.351562 -0.367188 5.84375 -0.140625 C 5.332031 0.078125 4.675781 0.1875 3.875 0.1875 C 2.882812 0.1875 2.101562 -0.109375 1.53125 -0.703125 C 0.96875 -1.296875 0.6875 -2.128906 0.6875 -3.203125 C 0.6875 -4.328125 1.078125 -5.160156 1.859375 -5.703125 C 2.640625 -6.253906 3.765625 -6.566406 5.234375 -6.640625 L 7 -6.6875 L 7 -6.84375 C 7 -7.707031 6.570312 -8.140625 5.71875 -8.140625 C 4.945312 -8.140625 3.972656 -7.878906 2.796875 -7.359375 L 1.75 -9.75 C 2.96875 -10.382812 4.515625 -10.703125 6.390625 -10.703125 C 7.734375 -10.703125 8.773438 -10.363281 9.515625 -9.6875 C 10.253906 -9.019531 10.625 -8.085938 10.625 -6.890625 L 10.625 0 Z M 5.421875 -2.375 C 5.859375 -2.375 6.234375 -2.507812 6.546875 -2.78125 C 6.859375 -3.0625 7.015625 -3.425781 7.015625 -3.875 L 7.015625 -4.6875 L 6.171875 -4.65625 C 4.984375 -4.613281 4.390625 -4.175781 4.390625 -3.34375 C 4.390625 -2.695312 4.734375 -2.375 5.421875 -2.375 Z M 5.421875 -2.375 "/></g></g></g><g fill="#dc9c0f" fill-opacity="1"><g transform="translate(233.682668, 120.379368)"><g/></g></g><g fill="#dc9c0f" fill-opacity="1"><g transform="translate(238.6172, 120.379368)"><g><path d="M 4.875 0 L 1.25 0 L 1.25 -14.4375 L 4.875 -14.4375 Z M 4.875 0 "/></g></g></g><g fill="#dc9c0f" fill-opacity="1"><g transform="translate(244.757527, 120.379368)"><g><path d="M 11.296875 -5.28125 C 11.296875 -3.5625 10.832031 -2.21875 9.90625 -1.25 C 8.976562 -0.289062 7.679688 0.1875 6.015625 0.1875 C 4.421875 0.1875 3.148438 -0.300781 2.203125 -1.28125 C 1.265625 -2.269531 0.796875 -3.601562 0.796875 -5.28125 C 0.796875 -6.988281 1.257812 -8.316406 2.1875 -9.265625 C 3.113281 -10.222656 4.410156 -10.703125 6.078125 -10.703125 C 7.109375 -10.703125 8.019531 -10.476562 8.8125 -10.03125 C 9.601562 -9.59375 10.210938 -8.960938 10.640625 -8.140625 C 11.078125 -7.328125 11.296875 -6.375 11.296875 -5.28125 Z M 4.484375 -5.28125 C 4.484375 -4.375 4.601562 -3.679688 4.84375 -3.203125 C 5.082031 -2.734375 5.488281 -2.5 6.0625 -2.5 C 6.625 -2.5 7.019531 -2.734375 7.25 -3.203125 C 7.476562 -3.679688 7.59375 -4.375 7.59375 -5.28125 C 7.59375 -6.175781 7.472656 -6.851562 7.234375 -7.3125 C 7.003906 -7.769531 6.609375 -8 6.046875 -8 C 5.484375 -8 5.082031 -7.769531 4.84375 -7.3125 C 4.601562 -6.863281 4.484375 -6.1875 4.484375 -5.28125 Z M 4.484375 -5.28125 "/></g></g></g><g fill="#dc9c0f" fill-opacity="1"><g transform="translate(256.861988, 120.379368)"><g><path d="M 9.375 -3.234375 C 9.375 -2.109375 8.988281 -1.253906 8.21875 -0.671875 C 7.445312 -0.0976562 6.347656 0.1875 4.921875 0.1875 C 4.140625 0.1875 3.457031 0.144531 2.875 0.0625 C 2.300781 -0.0195312 1.71875 -0.175781 1.125 -0.40625 L 1.125 -3.296875 C 1.6875 -3.054688 2.300781 -2.851562 2.96875 -2.6875 C 3.644531 -2.53125 4.242188 -2.453125 4.765625 -2.453125 C 5.554688 -2.453125 5.953125 -2.628906 5.953125 -2.984375 C 5.953125 -3.171875 5.835938 -3.335938 5.609375 -3.484375 C 5.390625 -3.628906 4.753906 -3.910156 3.703125 -4.328125 C 2.734375 -4.722656 2.054688 -5.171875 1.671875 -5.671875 C 1.296875 -6.179688 1.109375 -6.820312 1.109375 -7.59375 C 1.109375 -8.570312 1.484375 -9.332031 2.234375 -9.875 C 2.992188 -10.425781 4.0625 -10.703125 5.4375 -10.703125 C 6.125 -10.703125 6.769531 -10.625 7.375 -10.46875 C 7.988281 -10.320312 8.625 -10.101562 9.28125 -9.8125 L 8.296875 -7.46875 C 7.816406 -7.6875 7.304688 -7.867188 6.765625 -8.015625 C 6.234375 -8.171875 5.796875 -8.25 5.453125 -8.25 C 4.859375 -8.25 4.5625 -8.101562 4.5625 -7.8125 C 4.5625 -7.632812 4.664062 -7.476562 4.875 -7.34375 C 5.082031 -7.21875 5.679688 -6.960938 6.671875 -6.578125 C 7.410156 -6.273438 7.957031 -5.976562 8.3125 -5.6875 C 8.675781 -5.394531 8.941406 -5.050781 9.109375 -4.65625 C 9.285156 -4.269531 9.375 -3.796875 9.375 -3.234375 Z M 9.375 -3.234375 "/></g></g></g><g fill="#dc9c0f" fill-opacity="1"><g transform="translate(266.990764, 120.379368)"><g/></g></g><g fill="#dc9c0f" fill-opacity="1"><g transform="translate(271.925296, 120.379368)"><g><path d="M 14.15625 0 L 14.15625 -5.71875 C 14.15625 -6.425781 14.054688 -6.957031 13.859375 -7.3125 C 13.671875 -7.664062 13.363281 -7.84375 12.9375 -7.84375 C 12.382812 -7.84375 11.976562 -7.601562 11.71875 -7.125 C 11.457031 -6.65625 11.328125 -5.914062 11.328125 -4.90625 L 11.328125 0 L 7.6875 0 L 7.6875 -5.71875 C 7.6875 -6.425781 7.59375 -6.957031 7.40625 -7.3125 C 7.226562 -7.664062 6.929688 -7.84375 6.515625 -7.84375 C 5.941406 -7.84375 5.523438 -7.585938 5.265625 -7.078125 C 5.003906 -6.578125 4.875 -5.753906 4.875 -4.609375 L 4.875 0 L 1.25 0 L 1.25 -10.515625 L 3.984375 -10.515625 L 4.4375 -9.21875 L 4.65625 -9.21875 C 4.9375 -9.695312 5.335938 -10.0625 5.859375 -10.3125 C 6.390625 -10.570312 6.992188 -10.703125 7.671875 -10.703125 C 9.191406 -10.703125 10.253906 -10.238281 10.859375 -9.3125 L 11.15625 -9.3125 C 11.445312 -9.75 11.859375 -10.085938 12.390625 -10.328125 C 12.921875 -10.578125 13.503906 -10.703125 14.140625 -10.703125 C 15.378906 -10.703125 16.296875 -10.378906 16.890625 -9.734375 C 17.484375 -9.097656 17.78125 -8.132812 17.78125 -6.84375 L 17.78125 0 Z M 14.15625 0 "/></g></g></g><g fill="#dc9c0f" fill-opacity="1"><g transform="translate(290.921389, 120.379368)"><g><path d="M 6.328125 0.1875 C 4.578125 0.1875 3.21875 -0.273438 2.25 -1.203125 C 1.28125 -2.140625 0.796875 -3.46875 0.796875 -5.1875 C 0.796875 -6.957031 1.242188 -8.316406 2.140625 -9.265625 C 3.035156 -10.222656 4.316406 -10.703125 5.984375 -10.703125 C 7.566406 -10.703125 8.789062 -10.285156 9.65625 -9.453125 C 10.519531 -8.628906 10.953125 -7.441406 10.953125 -5.890625 L 10.953125 -4.28125 L 4.46875 -4.28125 C 4.488281 -3.6875 4.703125 -3.222656 5.109375 -2.890625 C 5.515625 -2.554688 6.066406 -2.390625 6.765625 -2.390625 C 7.398438 -2.390625 7.984375 -2.445312 8.515625 -2.5625 C 9.054688 -2.6875 9.640625 -2.894531 10.265625 -3.1875 L 10.265625 -0.578125 C 9.691406 -0.296875 9.101562 -0.0976562 8.5 0.015625 C 7.894531 0.128906 7.171875 0.1875 6.328125 0.1875 Z M 6.109375 -8.234375 C 5.679688 -8.234375 5.320312 -8.097656 5.03125 -7.828125 C 4.75 -7.554688 4.582031 -7.132812 4.53125 -6.5625 L 7.65625 -6.5625 C 7.644531 -7.0625 7.5 -7.460938 7.21875 -7.765625 C 6.945312 -8.078125 6.578125 -8.234375 6.109375 -8.234375 Z M 6.109375 -8.234375 "/></g></g></g><g fill="#dc9c0f" fill-opacity="1"><g transform="translate(302.664079, 120.379368)"><g><path d="M 0.984375 4.5625 C 0.679688 4.5625 0.335938 4.535156 -0.046875 4.484375 C -0.429688 4.441406 -0.738281 4.390625 -0.96875 4.328125 L -0.96875 1.5 C -0.570312 1.613281 -0.195312 1.671875 0.15625 1.671875 C 0.882812 1.671875 1.25 1.144531 1.25 0.09375 L 1.25 -10.515625 L 4.875 -10.515625 L 4.875 0.859375 C 4.875 2.015625 4.535156 2.921875 3.859375 3.578125 C 3.179688 4.234375 2.222656 4.5625 0.984375 4.5625 Z M 1.15625 -13.125 C 1.15625 -13.664062 1.304688 -14.066406 1.609375 -14.328125 C 1.910156 -14.597656 2.398438 -14.734375 3.078125 -14.734375 C 3.753906 -14.734375 4.242188 -14.597656 4.546875 -14.328125 C 4.859375 -14.054688 5.015625 -13.65625 5.015625 -13.125 C 5.015625 -12.0625 4.367188 -11.53125 3.078125 -11.53125 C 1.796875 -11.53125 1.15625 -12.0625 1.15625 -13.125 Z M 1.15625 -13.125 "/></g></g></g><g fill="#dc9c0f" fill-opacity="1"><g transform="translate(308.822968, 120.379368)"><g><path d="M 11.296875 -5.28125 C 11.296875 -3.5625 10.832031 -2.21875 9.90625 -1.25 C 8.976562 -0.289062 7.679688 0.1875 6.015625 0.1875 C 4.421875 0.1875 3.148438 -0.300781 2.203125 -1.28125 C 1.265625 -2.269531 0.796875 -3.601562 0.796875 -5.28125 C 0.796875 -6.988281 1.257812 -8.316406 2.1875 -9.265625 C 3.113281 -10.222656 4.410156 -10.703125 6.078125 -10.703125 C 7.109375 -10.703125 8.019531 -10.476562 8.8125 -10.03125 C 9.601562 -9.59375 10.210938 -8.960938 10.640625 -8.140625 C 11.078125 -7.328125 11.296875 -6.375 11.296875 -5.28125 Z M 4.484375 -5.28125 C 4.484375 -4.375 4.601562 -3.679688 4.84375 -3.203125 C 5.082031 -2.734375 5.488281 -2.5 6.0625 -2.5 C 6.625 -2.5 7.019531 -2.734375 7.25 -3.203125 C 7.476562 -3.679688 7.59375 -4.375 7.59375 -5.28125 C 7.59375 -6.175781 7.472656 -6.851562 7.234375 -7.3125 C 7.003906 -7.769531 6.609375 -8 6.046875 -8 C 5.484375 -8 5.082031 -7.769531 4.84375 -7.3125 C 4.601562 -6.863281 4.484375 -6.1875 4.484375 -5.28125 Z M 4.484375 -5.28125 "/></g></g></g><g fill="#dc9c0f" fill-opacity="1"><g transform="translate(320.927429, 120.379368)"><g><path d="M 7.59375 -10.703125 C 7.914062 -10.703125 8.21875 -10.675781 8.5 -10.625 L 8.703125 -10.578125 L 8.375 -7.15625 C 8.082031 -7.238281 7.671875 -7.28125 7.140625 -7.28125 C 6.347656 -7.28125 5.769531 -7.097656 5.40625 -6.734375 C 5.050781 -6.367188 4.875 -5.847656 4.875 -5.171875 L 4.875 0 L 1.25 0 L 1.25 -10.515625 L 3.953125 -10.515625 L 4.515625 -8.828125 L 4.6875 -8.828125 C 5 -9.390625 5.421875 -9.84375 5.953125 -10.1875 C 6.492188 -10.53125 7.039062 -10.703125 7.59375 -10.703125 Z M 7.59375 -10.703125 "/></g></g></g><g fill="#dc9c0f" fill-opacity="1"><g transform="translate(329.84114, 120.379368)"><g><path d="M 6.328125 0.1875 C 4.578125 0.1875 3.21875 -0.273438 2.25 -1.203125 C 1.28125 -2.140625 0.796875 -3.46875 0.796875 -5.1875 C 0.796875 -6.957031 1.242188 -8.316406 2.140625 -9.265625 C 3.035156 -10.222656 4.316406 -10.703125 5.984375 -10.703125 C 7.566406 -10.703125 8.789062 -10.285156 9.65625 -9.453125 C 10.519531 -8.628906 10.953125 -7.441406 10.953125 -5.890625 L 10.953125 -4.28125 L 4.46875 -4.28125 C 4.488281 -3.6875 4.703125 -3.222656 5.109375 -2.890625 C 5.515625 -2.554688 6.066406 -2.390625 6.765625 -2.390625 C 7.398438 -2.390625 7.984375 -2.445312 8.515625 -2.5625 C 9.054688 -2.6875 9.640625 -2.894531 10.265625 -3.1875 L 10.265625 -0.578125 C 9.691406 -0.296875 9.101562 -0.0976562 8.5 0.015625 C 7.894531 0.128906 7.171875 0.1875 6.328125 0.1875 Z M 6.109375 -8.234375 C 5.679688 -8.234375 5.320312 -8.097656 5.03125 -7.828125 C 4.75 -7.554688 4.582031 -7.132812 4.53125 -6.5625 L 7.65625 -6.5625 C 7.644531 -7.0625 7.5 -7.460938 7.21875 -7.765625 C 6.945312 -8.078125 6.578125 -8.234375 6.109375 -8.234375 Z M 6.109375 -8.234375 "/></g></g></g><g fill="#dc9c0f" fill-opacity="1"><g transform="translate(341.583831, 120.379368)"><g><path d="M 9.375 -3.234375 C 9.375 -2.109375 8.988281 -1.253906 8.21875 -0.671875 C 7.445312 -0.0976562 6.347656 0.1875 4.921875 0.1875 C 4.140625 0.1875 3.457031 0.144531 2.875 0.0625 C 2.300781 -0.0195312 1.71875 -0.175781 1.125 -0.40625 L 1.125 -3.296875 C 1.6875 -3.054688 2.300781 -2.851562 2.96875 -2.6875 C 3.644531 -2.53125 4.242188 -2.453125 4.765625 -2.453125 C 5.554688 -2.453125 5.953125 -2.628906 5.953125 -2.984375 C 5.953125 -3.171875 5.835938 -3.335938 5.609375 -3.484375 C 5.390625 -3.628906 4.753906 -3.910156 3.703125 -4.328125 C 2.734375 -4.722656 2.054688 -5.171875 1.671875 -5.671875 C 1.296875 -6.179688 1.109375 -6.820312 1.109375 -7.59375 C 1.109375 -8.570312 1.484375 -9.332031 2.234375 -9.875 C 2.992188 -10.425781 4.0625 -10.703125 5.4375 -10.703125 C 6.125 -10.703125 6.769531 -10.625 7.375 -10.46875 C 7.988281 -10.320312 8.625 -10.101562 9.28125 -9.8125 L 8.296875 -7.46875 C 7.816406 -7.6875 7.304688 -7.867188 6.765625 -8.015625 C 6.234375 -8.171875 5.796875 -8.25 5.453125 -8.25 C 4.859375 -8.25 4.5625 -8.101562 4.5625 -7.8125 C 4.5625 -7.632812 4.664062 -7.476562 4.875 -7.34375 C 5.082031 -7.21875 5.679688 -6.960938 6.671875 -6.578125 C 7.410156 -6.273438 7.957031 -5.976562 8.3125 -5.6875 C 8.675781 -5.394531 8.941406 -5.050781 9.109375 -4.65625 C 9.285156 -4.269531 9.375 -3.796875 9.375 -3.234375 Z M 9.375 -3.234375 "/></g></g></g><g fill="#dc9c0f" fill-opacity="1"><g transform="translate(351.712607, 120.379368)"><g/></g></g><g fill="#dc9c0f" fill-opacity="1"><g transform="translate(356.647139, 120.379368)"><g><path d="M 7.5625 0.1875 C 7.03125 0.1875 6.550781 0.0976562 6.125 -0.078125 C 5.707031 -0.253906 5.289062 -0.570312 4.875 -1.03125 L 4.71875 -1.03125 C 4.820312 -0.289062 4.875 0.164062 4.875 0.34375 L 4.875 4.5625 L 1.25 4.5625 L 1.25 -10.515625 L 4.203125 -10.515625 L 4.71875 -9.171875 L 4.875 -9.171875 C 5.550781 -10.191406 6.484375 -10.703125 7.671875 -10.703125 C 8.835938 -10.703125 9.75 -10.21875 10.40625 -9.25 C 11.070312 -8.28125 11.40625 -6.957031 11.40625 -5.28125 C 11.40625 -3.582031 11.054688 -2.242188 10.359375 -1.265625 C 9.671875 -0.296875 8.738281 0.1875 7.5625 0.1875 Z M 6.34375 -7.84375 C 5.8125 -7.84375 5.4375 -7.648438 5.21875 -7.265625 C 5.007812 -6.890625 4.894531 -6.328125 4.875 -5.578125 L 4.875 -5.296875 C 4.875 -4.390625 4.992188 -3.734375 5.234375 -3.328125 C 5.484375 -2.929688 5.867188 -2.734375 6.390625 -2.734375 C 6.847656 -2.734375 7.179688 -2.929688 7.390625 -3.328125 C 7.597656 -3.734375 7.703125 -4.394531 7.703125 -5.3125 C 7.703125 -6.21875 7.597656 -6.863281 7.390625 -7.25 C 7.179688 -7.644531 6.832031 -7.84375 6.34375 -7.84375 Z M 6.34375 -7.84375 "/></g></g></g><g fill="#dc9c0f" fill-opacity="1"><g transform="translate(368.862882, 120.379368)"><g><path d="M 7.59375 -10.703125 C 7.914062 -10.703125 8.21875 -10.675781 8.5 -10.625 L 8.703125 -10.578125 L 8.375 -7.15625 C 8.082031 -7.238281 7.671875 -7.28125 7.140625 -7.28125 C 6.347656 -7.28125 5.769531 -7.097656 5.40625 -6.734375 C 5.050781 -6.367188 4.875 -5.847656 4.875 -5.171875 L 4.875 0 L 1.25 0 L 1.25 -10.515625 L 3.953125 -10.515625 L 4.515625 -8.828125 L 4.6875 -8.828125 C 5 -9.390625 5.421875 -9.84375 5.953125 -10.1875 C 6.492188 -10.53125 7.039062 -10.703125 7.59375 -10.703125 Z M 7.59375 -10.703125 "/></g></g></g><g fill="#dc9c0f" fill-opacity="1"><g transform="translate(377.776593, 120.379368)"><g><path d="M 6.328125 0.1875 C 4.578125 0.1875 3.21875 -0.273438 2.25 -1.203125 C 1.28125 -2.140625 0.796875 -3.46875 0.796875 -5.1875 C 0.796875 -6.957031 1.242188 -8.316406 2.140625 -9.265625 C 3.035156 -10.222656 4.316406 -10.703125 5.984375 -10.703125 C 7.566406 -10.703125 8.789062 -10.285156 9.65625 -9.453125 C 10.519531 -8.628906 10.953125 -7.441406 10.953125 -5.890625 L 10.953125 -4.28125 L 4.46875 -4.28125 C 4.488281 -3.6875 4.703125 -3.222656 5.109375 -2.890625 C 5.515625 -2.554688 6.066406 -2.390625 6.765625 -2.390625 C 7.398438 -2.390625 7.984375 -2.445312 8.515625 -2.5625 C 9.054688 -2.6875 9.640625 -2.894531 10.265625 -3.1875 L 10.265625 -0.578125 C 9.691406 -0.296875 9.101562 -0.0976562 8.5 0.015625 C 7.894531 0.128906 7.171875 0.1875 6.328125 0.1875 Z M 6.109375 -8.234375 C 5.679688 -8.234375 5.320312 -8.097656 5.03125 -7.828125 C 4.75 -7.554688 4.582031 -7.132812 4.53125 -6.5625 L 7.65625 -6.5625 C 7.644531 -7.0625 7.5 -7.460938 7.21875 -7.765625 C 6.945312 -8.078125 6.578125 -8.234375 6.109375 -8.234375 Z M 6.109375 -8.234375 "/></g></g></g><g fill="#dc9c0f" fill-opacity="1"><g transform="translate(389.519283, 120.379368)"><g><path d="M 6.046875 0.1875 C 4.316406 0.1875 3.007812 -0.273438 2.125 -1.203125 C 1.238281 -2.128906 0.796875 -3.460938 0.796875 -5.203125 C 0.796875 -6.953125 1.273438 -8.304688 2.234375 -9.265625 C 3.191406 -10.222656 4.554688 -10.703125 6.328125 -10.703125 C 7.546875 -10.703125 8.691406 -10.4375 9.765625 -9.90625 L 8.703125 -7.21875 C 8.265625 -7.40625 7.859375 -7.554688 7.484375 -7.671875 C 7.117188 -7.785156 6.734375 -7.84375 6.328125 -7.84375 C 5.742188 -7.84375 5.289062 -7.613281 4.96875 -7.15625 C 4.644531 -6.695312 4.484375 -6.050781 4.484375 -5.21875 C 4.484375 -3.539062 5.101562 -2.703125 6.34375 -2.703125 C 7.40625 -2.703125 8.425781 -3.007812 9.40625 -3.625 L 9.40625 -0.75 C 8.46875 -0.125 7.347656 0.1875 6.046875 0.1875 Z M 6.046875 0.1875 "/></g></g></g><g fill="#dc9c0f" fill-opacity="1"><g transform="translate(399.759364, 120.379368)"><g><path d="M 4.90625 0 L 1.265625 0 L 1.265625 -10.515625 L 4.90625 -10.515625 Z M 1.171875 -13.125 C 1.171875 -13.664062 1.320312 -14.066406 1.625 -14.328125 C 1.9375 -14.597656 2.425781 -14.734375 3.09375 -14.734375 C 3.769531 -14.734375 4.257812 -14.597656 4.5625 -14.328125 C 4.875 -14.054688 5.03125 -13.65625 5.03125 -13.125 C 5.03125 -12.0625 4.382812 -11.53125 3.09375 -11.53125 C 1.8125 -11.53125 1.171875 -12.0625 1.171875 -13.125 Z M 1.171875 -13.125 "/></g></g></g><g fill="#dc9c0f" fill-opacity="1"><g transform="translate(405.936793, 120.379368)"><g><path d="M 11.296875 -5.28125 C 11.296875 -3.5625 10.832031 -2.21875 9.90625 -1.25 C 8.976562 -0.289062 7.679688 0.1875 6.015625 0.1875 C 4.421875 0.1875 3.148438 -0.300781 2.203125 -1.28125 C 1.265625 -2.269531 0.796875 -3.601562 0.796875 -5.28125 C 0.796875 -6.988281 1.257812 -8.316406 2.1875 -9.265625 C 3.113281 -10.222656 4.410156 -10.703125 6.078125 -10.703125 C 7.109375 -10.703125 8.019531 -10.476562 8.8125 -10.03125 C 9.601562 -9.59375 10.210938 -8.960938 10.640625 -8.140625 C 11.078125 -7.328125 11.296875 -6.375 11.296875 -5.28125 Z M 4.484375 -5.28125 C 4.484375 -4.375 4.601562 -3.679688 4.84375 -3.203125 C 5.082031 -2.734375 5.488281 -2.5 6.0625 -2.5 C 6.625 -2.5 7.019531 -2.734375 7.25 -3.203125 C 7.476562 -3.679688 7.59375 -4.375 7.59375 -5.28125 C 7.59375 -6.175781 7.472656 -6.851562 7.234375 -7.3125 C 7.003906 -7.769531 6.609375 -8 6.046875 -8 C 5.484375 -8 5.082031 -7.769531 4.84375 -7.3125 C 4.601562 -6.863281 4.484375 -6.1875 4.484375 -5.28125 Z M 4.484375 -5.28125 "/></g></g></g><g fill="#dc9c0f" fill-opacity="1"><g transform="translate(418.041254, 120.379368)"><g><path d="M 9.375 -3.234375 C 9.375 -2.109375 8.988281 -1.253906 8.21875 -0.671875 C 7.445312 -0.0976562 6.347656 0.1875 4.921875 0.1875 C 4.140625 0.1875 3.457031 0.144531 2.875 0.0625 C 2.300781 -0.0195312 1.71875 -0.175781 1.125 -0.40625 L 1.125 -3.296875 C 1.6875 -3.054688 2.300781 -2.851562 2.96875 -2.6875 C 3.644531 -2.53125 4.242188 -2.453125 4.765625 -2.453125 C 5.554688 -2.453125 5.953125 -2.628906 5.953125 -2.984375 C 5.953125 -3.171875 5.835938 -3.335938 5.609375 -3.484375 C 5.390625 -3.628906 4.753906 -3.910156 3.703125 -4.328125 C 2.734375 -4.722656 2.054688 -5.171875 1.671875 -5.671875 C 1.296875 -6.179688 1.109375 -6.820312 1.109375 -7.59375 C 1.109375 -8.570312 1.484375 -9.332031 2.234375 -9.875 C 2.992188 -10.425781 4.0625 -10.703125 5.4375 -10.703125 C 6.125 -10.703125 6.769531 -10.625 7.375 -10.46875 C 7.988281 -10.320312 8.625 -10.101562 9.28125 -9.8125 L 8.296875 -7.46875 C 7.816406 -7.6875 7.304688 -7.867188 6.765625 -8.015625 C 6.234375 -8.171875 5.796875 -8.25 5.453125 -8.25 C 4.859375 -8.25 4.5625 -8.101562 4.5625 -7.8125 C 4.5625 -7.632812 4.664062 -7.476562 4.875 -7.34375 C 5.082031 -7.21875 5.679688 -6.960938 6.671875 -6.578125 C 7.410156 -6.273438 7.957031 -5.976562 8.3125 -5.6875 C 8.675781 -5.394531 8.941406 -5.050781 9.109375 -4.65625 C 9.285156 -4.269531 9.375 -3.796875 9.375 -3.234375 Z M 9.375 -3.234375 "/></g></g></g><g fill="#dc9c0f" fill-opacity="1"><g transform="translate(428.170053, 120.379368)"><g><path d="M 6.140625 -5.40625 C 6.140625 -3.65625 5.914062 -2.0625 5.46875 -0.625 C 5.03125 0.800781 4.382812 2.007812 3.53125 3 L 0.53125 3 C 1.3125 1.9375 1.90625 0.675781 2.3125 -0.78125 C 2.726562 -2.25 2.9375 -3.796875 2.9375 -5.421875 C 2.9375 -7.054688 2.734375 -8.601562 2.328125 -10.0625 C 1.921875 -11.53125 1.316406 -12.820312 0.515625 -13.9375 L 3.53125 -13.9375 C 4.394531 -12.914062 5.046875 -11.675781 5.484375 -10.21875 C 5.921875 -8.757812 6.140625 -7.15625 6.140625 -5.40625 Z M 2.296875 -13.78125 Z M 2.296875 -13.78125 "/></g></g></g></svg>